<svg xmlns="http://www.w3.org/2000/svg" viewBox="0 0 512 512" id="gst"><path fill="#e1e1e3" d="M392.83,102.5v372a30,30,0,0,1-30,30h-311a30,30,0,0,1-30-30V37.5a30,30,0,0,1,30-30h246Z"></path><path fill="#dadadc" d="M297.83,7.5h-30l95,95v372a30,30,0,0,1-30,30h30a30,30,0,0,0,30-30v-372Z"></path><path fill="#dadadc" d="M392.83,112.5h-65a30,30,0,0,1-30-30v-65l95,85Z"></path><path fill="#c8c5cc" d="M392.83,102.5h-65a30,30,0,0,1-30-30V7.5"></path><rect width="60" height="60" x="66.83" y="191.5" fill="#feea9d" rx="15"></rect><path fill="#fee27d" d="M111.83,191.5h-20a15,15,0,0,1,15,15v30a15,15,0,0,1-15,15h20a15,15,0,0,0,15-15v-30A15,15,0,0,0,111.83,191.5Z"></path><rect width="60" height="60" x="66.83" y="296.5" fill="#feea9d" rx="15"></rect><path fill="#fee27d" d="M111.83,296.5h-20a15,15,0,0,1,15,15v30a15,15,0,0,1-15,15h20a15,15,0,0,0,15-15v-30A15,15,0,0,0,111.83,296.5Z"></path><rect width="60" height="60" x="66.83" y="401.5" fill="#feea9d" rx="15"></rect><path fill="#fee27d" d="M111.83,401.5h-20a15,15,0,0,1,15,15v30a15,15,0,0,1-15,15h20a15,15,0,0,0,15-15v-30A15,15,0,0,0,111.83,401.5Z"></path><path fill="#fff" d="M342.84 214h-186a7.5 7.5 0 0 1 0-15h186a7.5 7.5 0 0 1 0 15zM282.84 244h-126a7.5 7.5 0 0 1 0-15h126a7.5 7.5 0 0 1 0 15zM278 319H156.83a7.5 7.5 0 0 1 0-15H278a7.5 7.5 0 0 1 0 15zM237.84 349h-81a7.5 7.5 0 0 1 0-15h81a7.5 7.5 0 1 1 0 15zM248 424H156.83a7.5 7.5 0 0 1 0-15H248a7.5 7.5 0 0 1 0 15zM254 454H156.83a7.5 7.5 0 0 1 0-15H254a7.5 7.5 0 0 1 0 15zM85.65 80.54c-7.51 0-11.76 4.14-11.76 12.88v31.24c0 8.74 4.25 12.88 11.65 12.88S97.3 133.4 97.3 124.66v-6.61H88.22c-2.91 0-4.48-2.8-4.48-5.71s1.57-5.71 4.48-5.71h19a4.5 4.5 0 0 1 4.6 4.7v13.33c0 18.71-11.54 25.65-26.32 25.65s-26.21-6.94-26.21-25.65V93.42c0-18.71 11.53-25.65 25.76-25.65 15.45 0 26.77 8.06 26.77 21.5 0 5.6-2.47 6.94-7.28 6.94-3.92 0-7.17-1.12-7.28-4.59C97 86.36 95.17 80.54 85.65 80.54zM163.15 127.8c0-16.8-35.95-11.65-35.95-38.19 0-16.69 14.34-22.4 27.22-22.4 6.6 0 21.28 1.57 21.28 9 0 2.57-1.8 7.72-5.83 7.72-3.47 0-6.05-4.25-15.45-4.25-8.07 0-12.66 3.25-12.66 8.62 0 13.89 36 9.07 36 38.08 0 16-11.2 24.31-26.66 24.31-14.67 0-25.87-7.4-25.87-13.89 0-3.14 2.91-7.84 6.39-7.84 4.59 0 7.61 8.62 19 8.62C157.33 137.54 163.15 134.52 163.15 127.8zM240.09 67.77c3.14 0 4.6 3.36 4.6 6.49 0 3.48-1.68 6.61-4.6 6.61H223.74v64.18c0 3-3.69 4.59-7.28 4.59s-7.28-1.57-7.28-4.59V80.87H192.72c-2.91 0-4.59-3-4.59-6.61 0-3.13 1.45-6.49 4.59-6.49z"></path><path fill="#dadadc" d="M392.83,280.92V474.5a30,30,0,0,1-30,30H329.25a35.3,35.3,0,0,1-2.71-4.42,5.86,5.86,0,0,0-5.24-3.19H321c-.57,0-1.13,0-1.69,0h0a36.06,36.06,0,0,1-25.95-11.11,35.57,35.57,0,0,1-9.89-26.46,5.92,5.92,0,0,0-3.18-5.52,35.89,35.89,0,0,1-13.74-51.27,5.92,5.92,0,0,0,0-6.37,35.89,35.89,0,0,1,13.74-51.27,5.92,5.92,0,0,0,3.18-5.52A35.55,35.55,0,0,1,293.38,313a36.06,36.06,0,0,1,26-11.12c.56,0,1.12,0,1.69,0h.27a5.86,5.86,0,0,0,5.24-3.19A35.9,35.9,0,0,1,377.81,285a5.89,5.89,0,0,0,6.37,0A35.85,35.85,0,0,1,392.83,280.92Z"></path><path fill="#eb304a" d="M392.28,297.58h0a20.9,20.9,0,0,1,29.85,8h0a20.89,20.89,0,0,0,19.54,11.28h0a20.9,20.9,0,0,1,21.85,21.85h0a20.9,20.9,0,0,0,11.29,19.54h0a20.9,20.9,0,0,1,8,29.85h0a21,21,0,0,0,0,22.57h0a20.9,20.9,0,0,1-8,29.85h0a20.9,20.9,0,0,0-11.29,19.54h0a20.89,20.89,0,0,1-21.85,21.85h0a20.91,20.91,0,0,0-19.54,11.28h0a20.9,20.9,0,0,1-29.85,8h0a20.89,20.89,0,0,0-22.56,0h0a20.9,20.9,0,0,1-29.85-8h0a20.91,20.91,0,0,0-19.54-11.28h0a20.89,20.89,0,0,1-21.85-21.85h0a20.9,20.9,0,0,0-11.29-19.54h0a20.9,20.9,0,0,1-8-29.85h0a21,21,0,0,0,0-22.57h0a20.9,20.9,0,0,1,8-29.85h0a20.9,20.9,0,0,0,11.29-19.54h0a20.9,20.9,0,0,1,21.85-21.85h0a20.89,20.89,0,0,0,19.54-11.28h0a20.9,20.9,0,0,1,29.85-8h0A20.89,20.89,0,0,0,392.28,297.58Z"></path><path fill="#e4222e" d="M482.8,410.67a21,21,0,0,1,0-22.57h0a20.9,20.9,0,0,0-8-29.85h0a20.9,20.9,0,0,1-11.29-19.54,20.9,20.9,0,0,0-21.85-21.85h0a20.89,20.89,0,0,1-19.54-11.28,20.9,20.9,0,0,0-29.85-8c-.43.28-.86.54-1.31.78a20.77,20.77,0,0,1,6.16,7.22,20.89,20.89,0,0,0,19.54,11.28h0a20.9,20.9,0,0,1,21.85,21.85,20.9,20.9,0,0,0,11.29,19.54h0a20.9,20.9,0,0,1,8,29.85h0a21,21,0,0,0,0,22.57h0a20.9,20.9,0,0,1-8,29.85h0a20.9,20.9,0,0,0-11.29,19.54,20.89,20.89,0,0,1-21.85,21.85h0a20.91,20.91,0,0,0-19.54,11.28,20.8,20.8,0,0,1-6.16,7.23c.45.24.88.49,1.31.77a20.9,20.9,0,0,0,29.85-8,20.91,20.91,0,0,1,19.54-11.28h0a20.89,20.89,0,0,0,21.85-21.85,20.9,20.9,0,0,1,11.29-19.54h0a20.9,20.9,0,0,0,8-29.85Z"></path><path fill="#fff" d="M415.66 453.81a22.49 22.49 0 1 1 15.91-6.58h0A22.41 22.41 0 0 1 415.66 453.81zm10.61-11.88h0zm-10.61-18.11A7.5 7.5 0 1 0 421 426 7.44 7.44 0 0 0 415.66 423.82zM352 390.17a22.49 22.49 0 1 1 15.91-6.58h0A22.41 22.41 0 0 1 352 390.17zm10.61-11.88h0zM352 360.18a7.5 7.5 0 1 0 5.31 2.2A7.48 7.48 0 0 0 352 360.18zM341.34 449.5a7.5 7.5 0 0 1-5.3-12.8l85-85a7.5 7.5 0 1 1 10.61 10.6l-85 85A7.48 7.48 0 0 1 341.34 449.5z"></path></svg>