<svg xmlns="http://www.w3.org/2000/svg" width="88.291" height="100.226" viewBox="0 0 88.291 100.226">
  <path id="right_pattern" d="M62.637,0c3.908,0,7.641,2.462,9.938,4.962a45.182,45.182,0,0,1,5,7.092c.941,1.535,1.914,3.123,2.983,4.6A36.126,36.126,0,0,0,113.5,30.944l.039.315A35.407,35.407,0,0,1,95,28.5a35.56,35.56,0,0,1-14.7-11.666c-1.076-1.486-2.052-3.078-3-4.618a44.927,44.927,0,0,0-4.967-7.045c-2.783-3.028-7.7-6-12.42-4.422-2.9.973-5.035,3.445-7.095,5.836C50.576,9.2,48.246,11.908,44.9,12.633c-3.582.778-6.979-.987-10.266-2.694-2.977-1.547-6.055-3.146-9.288-2.887-4.818.387-8.335,4.692-11.252,8.7l-.912,2.247-.254-.187.912-2.246C16.8,11.5,20.37,7.133,25.324,6.738c3.328-.264,6.442,1.355,9.458,2.921,3.385,1.758,6.582,3.42,10.054,2.666,3.242-.7,5.434-3.248,7.755-5.943,2.088-2.423,4.247-4.929,7.233-5.93A8.8,8.8,0,0,1,62.637,0Z" transform="translate(70.639 109.626) rotate(-128)" fill="#fff" stroke="#fff" stroke-width="1" opacity="0.5"/>
</svg>
