<?xml version="1.0" encoding="utf-8"?>
<!-- Generator: Adobe Illustrator 27.5.0, SVG Export Plug-In . SVG Version: 6.00 Build 0)  -->
<svg version="1.1" xmlns="http://www.w3.org/2000/svg" xmlns:xlink="http://www.w3.org/1999/xlink" x="0px" y="0px"
	 viewBox="0 0 750 500" style="enable-background:new 0 0 750 500;" xml:space="preserve">
<g id="BACKGROUND">
	<g>
		<polyline style="opacity:0.5;fill:none;stroke:#6E83FF;stroke-miterlimit:10;" points="31.5,396.147 146.983,396.147 
			146.983,411.06 209.327,411.06 209.327,356.36 224.604,356.36 224.604,440.561 251.174,440.561 251.174,324.426 383.478,324.426 
			383.478,277.38 460.903,277.38 460.903,375.154 478.354,375.154 478.354,416.978 581.622,416.978 581.622,358.66 673.025,358.66 
			673.025,421.621 693,421.621 693,396.147 718.5,396.147 		"/>
		<g style="opacity:0.5;">
			<circle style="fill:none;stroke:#6E83FF;stroke-miterlimit:10;" cx="368.006" cy="81.729" r="22.601"/>
			<line style="fill:none;stroke:#6E83FF;stroke-miterlimit:10;" x1="368.006" y1="55.777" x2="368.006" y2="50.653"/>
			<line style="fill:none;stroke:#6E83FF;stroke-miterlimit:10;" x1="368.006" y1="112.805" x2="368.006" y2="107.68"/>
			<line style="fill:none;stroke:#6E83FF;stroke-miterlimit:10;" x1="361.288" y1="56.662" x2="359.962" y2="51.712"/>
			<line style="fill:none;stroke:#6E83FF;stroke-miterlimit:10;" x1="376.049" y1="111.746" x2="374.723" y2="106.796"/>
			<line style="fill:none;stroke:#6E83FF;stroke-miterlimit:10;" x1="355.03" y1="59.254" x2="352.468" y2="54.817"/>
			<line style="fill:none;stroke:#6E83FF;stroke-miterlimit:10;" x1="383.544" y1="108.642" x2="380.981" y2="104.203"/>
			<line style="fill:none;stroke:#6E83FF;stroke-miterlimit:10;" x1="349.655" y1="63.379" x2="346.032" y2="59.755"/>
			<line style="fill:none;stroke:#6E83FF;stroke-miterlimit:10;" x1="389.979" y1="103.703" x2="386.356" y2="100.079"/>
			<line style="fill:none;stroke:#6E83FF;stroke-miterlimit:10;" x1="345.532" y1="68.753" x2="341.093" y2="66.191"/>
			<line style="fill:none;stroke:#6E83FF;stroke-miterlimit:10;" x1="394.918" y1="97.268" x2="390.479" y2="94.705"/>
			<line style="fill:none;stroke:#6E83FF;stroke-miterlimit:10;" x1="342.938" y1="75.012" x2="337.989" y2="73.687"/>
			<line style="fill:none;stroke:#6E83FF;stroke-miterlimit:10;" x1="398.022" y1="89.772" x2="393.073" y2="88.446"/>
			<line style="fill:none;stroke:#6E83FF;stroke-miterlimit:10;" x1="342.056" y1="81.729" x2="336.931" y2="81.729"/>
			<line style="fill:none;stroke:#6E83FF;stroke-miterlimit:10;" x1="399.083" y1="81.729" x2="393.958" y2="81.729"/>
			<line style="fill:none;stroke:#6E83FF;stroke-miterlimit:10;" x1="342.94" y1="88.445" x2="337.99" y2="89.772"/>
			<line style="fill:none;stroke:#6E83FF;stroke-miterlimit:10;" x1="398.024" y1="73.686" x2="393.074" y2="75.012"/>
			<line style="fill:none;stroke:#6E83FF;stroke-miterlimit:10;" x1="345.533" y1="94.704" x2="341.095" y2="97.267"/>
			<line style="fill:none;stroke:#6E83FF;stroke-miterlimit:10;" x1="394.919" y1="66.191" x2="390.481" y2="68.753"/>
			<line style="fill:none;stroke:#6E83FF;stroke-miterlimit:10;" x1="349.657" y1="100.078" x2="346.033" y2="103.703"/>
			<line style="fill:none;stroke:#6E83FF;stroke-miterlimit:10;" x1="389.981" y1="59.754" x2="386.358" y2="63.378"/>
			<line style="fill:none;stroke:#6E83FF;stroke-miterlimit:10;" x1="355.032" y1="104.202" x2="352.47" y2="108.641"/>
			<line style="fill:none;stroke:#6E83FF;stroke-miterlimit:10;" x1="383.545" y1="54.816" x2="380.983" y2="59.253"/>
			<line style="fill:none;stroke:#6E83FF;stroke-miterlimit:10;" x1="361.29" y1="106.794" x2="359.964" y2="111.745"/>
			<line style="fill:none;stroke:#6E83FF;stroke-miterlimit:10;" x1="376.05" y1="51.711" x2="374.724" y2="56.66"/>
		</g>
		<path style="opacity:0.5;fill:none;stroke:#6E83FF;stroke-miterlimit:10;" d="M132.178,125.199c-1.342,0-2.63,0.23-3.828,0.652
			c0.14-1.092,0.221-2.203,0.221-3.332c0-14.246-11.549-25.795-25.795-25.795c-11.704,0-21.582,7.798-24.736,18.48
			c-1.487-0.43-3.059-0.664-4.684-0.664c-9.326,0-16.887,7.561-16.887,16.887c0,9.326,7.56,16.887,16.887,16.887
			c5.172,0,9.799-2.328,12.897-5.99c4.475,3.738,10.236,5.99,16.523,5.99c7.244,0,13.788-2.99,18.473-7.8
			c1.561,4.538,5.863,7.8,10.93,7.8c6.384,0,11.559-5.175,11.559-11.558C143.736,130.373,138.561,125.199,132.178,125.199z"/>
		<path style="opacity:0.5;fill:none;stroke:#6E83FF;stroke-miterlimit:10;" d="M681.34,125.199c-1.342,0-2.63,0.23-3.828,0.652
			c0.14-1.092,0.221-2.203,0.221-3.332c0-14.246-11.549-25.795-25.795-25.795c-11.704,0-21.582,7.798-24.736,18.48
			c-1.487-0.43-3.059-0.664-4.684-0.664c-9.326,0-16.887,7.561-16.887,16.887c0,9.326,7.56,16.887,16.887,16.887
			c5.172,0,9.799-2.328,12.897-5.99c4.475,3.738,10.236,5.99,16.523,5.99c7.244,0,13.788-2.99,18.473-7.8
			c1.56,4.538,5.863,7.8,10.93,7.8c6.384,0,11.559-5.175,11.559-11.558C692.898,130.373,687.724,125.199,681.34,125.199z"/>
		<path style="opacity:0.5;fill:none;stroke:#6E83FF;stroke-miterlimit:10;" d="M567.087,75.695c-1.234,0-2.387,0.344-3.378,0.931
			c-0.47-3.18-2.447-5.866-5.183-7.311c0.142-0.779,0.222-1.581,0.222-2.4c0-7.265-5.891-13.154-13.154-13.154
			c-7.062,0-12.823,5.566-13.14,12.55c-2.156,0.584-4.074,1.744-5.581,3.306c-1.502-0.915-3.267-1.445-5.155-1.445
			c-5.475,0-9.913,4.438-9.913,9.914c0,5.474,4.439,9.913,9.913,9.913c1.889,0,3.653-0.528,5.155-1.444
			c2.22,2.3,5.331,3.732,8.779,3.732c4.478,0,8.39-2.413,10.513-6.009c1.816,2.268,4.608,3.721,7.738,3.721
			c2.784,0,5.298-1.148,7.099-2.996c1.026,2.343,3.363,3.982,6.085,3.982c3.669,0,6.644-2.976,6.644-6.645
			C573.731,78.67,570.756,75.695,567.087,75.695z"/>
		<path style="opacity:0.5;fill:none;stroke:#6E83FF;stroke-miterlimit:10;" d="M183.646,71.248c-1.413,0-2.761,0.285-3.99,0.796
			c-2.587-4.401-7.37-7.357-12.844-7.357c-8.227,0-14.896,6.669-14.896,14.894c0,8.227,6.669,14.896,14.896,14.896
			c4.179,0,7.954-1.724,10.658-4.495c1.729,1.28,3.859,2.048,6.176,2.048c5.739,0,10.392-4.651,10.392-10.39
			C194.038,75.899,189.385,71.248,183.646,71.248z"/>
		<path style="opacity:0.5;fill:none;stroke:#6E83FF;stroke-miterlimit:10;" d="M499.805,49.153c-0.74,0-1.445,0.149-2.089,0.417
			c-1.355-2.304-3.859-3.852-6.726-3.852c-4.307,0-7.799,3.491-7.799,7.798c0,4.307,3.492,7.799,7.799,7.799
			c2.188,0,4.165-0.902,5.58-2.354c0.906,0.67,2.021,1.072,3.234,1.072c3.005,0,5.44-2.436,5.44-5.44
			C505.245,51.588,502.81,49.153,499.805,49.153z"/>
	</g>
</g>
<g id="OBJECTS">
	<g>
		<polygon style="fill:#FFFFFF;stroke:#282833;stroke-miterlimit:10;" points="257.894,396.75 263.133,417.39 247.225,421.9 
			239.883,398.145 		"/>
		<path style="fill:#282833;" d="M263.857,415.302l1.548,3.85c0,0,1.198,2.696,1.71,4.022c0.512,1.324,0.133,2-1.064,2.402
			c-1.197,0.404,0,0-16.656,5.605c-9.685,3.119-19.098,6.23-19.785,4.097c-2.169-6.737,6.29-12.974,6.291-12.976
			c2.299-2.17,2.855-3.687,3.723-6.772c0.25-0.891,1.798-2.827,5.592-1.588c2.654,0.866,7.188,6.029,12.633,4.585
			c3.288-0.873,4.158-2.173,4.362-3.597C262.289,414.376,263.857,415.302,263.857,415.302z"/>
		<g>
			<g>
				<path style="fill:#FFFFFF;" d="M231.362,435.731c-0.613,0-1.373-0.093-1.515-0.531c-1.163-3.609,0.862-7.098,2.801-9.416
					l0.116-0.003c4.184,0,7.232,4.757,7.263,4.805l0.104,0.165l0.185-0.06c4.596-1.481,23.787-7.901,26.064-8.663
					c0.193,0.456,0.372,0.892,0.503,1.234c0.228,0.59,0.266,1.031,0.116,1.352c-0.143,0.303-0.478,0.54-1.026,0.724l-16.656,5.605
					l-0.926,0.299C241.227,433.551,234.461,435.731,231.362,435.731z"/>
				<path style="fill:#282833;" d="M266.238,422.339c0.157,0.375,0.3,0.728,0.411,1.015c0.199,0.515,0.24,0.903,0.122,1.154
					c-0.112,0.238-0.399,0.432-0.88,0.594l-2.53,0.852l-14.119,4.752l-0.929,0.299c-7.144,2.303-13.891,4.477-16.95,4.477
					c-0.727,0-1.205-0.133-1.277-0.357c-1.113-3.457,0.806-6.823,2.682-9.093c4.04,0.002,7.019,4.642,7.048,4.688l0.207,0.328
					l0.369-0.119C244.865,429.487,263.16,423.369,266.238,422.339 M266.519,421.718c0,0-21.362,7.15-26.28,8.735
					c0,0-3.099-4.922-7.474-4.922c-0.078,0-0.156,0.002-0.235,0.005c-2.071,2.449-4.119,6.018-2.92,9.741
					c0.158,0.49,0.776,0.703,1.753,0.703c3.274,0,10.572-2.397,18.032-4.8c16.656-5.605,15.459-5.201,16.656-5.605
					c1.197-0.402,1.576-1.078,1.064-2.402C266.962,422.775,266.746,422.253,266.519,421.718L266.519,421.718z"/>
			</g>
		</g>
		<path style="fill:none;stroke:#FFFFFF;stroke-width:0.5;stroke-linecap:round;stroke-linejoin:round;stroke-miterlimit:10;" d="
			M234.551,423.166c0,0,2.319-0.591,5.383,1.855"/>
		<path style="fill:none;stroke:#FFFFFF;stroke-width:0.5;stroke-linecap:round;stroke-linejoin:round;stroke-miterlimit:10;" d="
			M236.051,421.771c0,0,2.468-0.684,5.531,1.761"/>
		<path style="fill:none;stroke:#FFFFFF;stroke-width:0.5;stroke-linecap:round;stroke-linejoin:round;stroke-miterlimit:10;" d="
			M237.346,420.342c0,0,2.588-0.717,5.328,1.928"/>
		<polygon style="fill:#FFFFFF;stroke:#282833;stroke-miterlimit:10;" points="318.386,411.25 320.016,431.583 305.136,432.045 
			301.136,407.705 		"/>
		<g>
			<path style="fill:none;stroke:#282833;stroke-miterlimit:10;" d="M173.371,157.63l-4.28-27.109
				c-0.171-1.086,0.539-2.269,1.578-2.629l4.259-1.473c1.04-0.36,2.03,0.235,2.202,1.322l3.538,22.41
				c0.172,1.086-0.519,2.321-1.535,2.743l-5.517,2.293"/>
		</g>
		<path style="fill:#FFB5B3;" d="M180.211,157.622c0,0-3-5.805-4.25-8.805s-0.25-10.25-2.75-11s-3,3.75-2,8
			c0,0-2.059-7.831-2.082-12.5c-0.021-4.366-2.668-1.25-2.918,3s-1.5,15.645,1.5,19.447c3,3.803,5.266,8.553,5.266,8.553
			L180.211,157.622z"/>
		<path style="fill:#282833;" d="M320.016,413.128l-16.074-166.444h-61.765c0,0-20.658,68.816-22.908,75.066
			s-1.676,16.027-0.43,21.789c1.247,5.762,14.989,69.276,14.989,69.276l27.202-8.74l-11.146-69.825l19.883-42.5l22.502,120.753
			L320.016,413.128z"/>
		<polygon style="fill:#5265FF;" points="303.942,246.684 298.936,215.922 299.106,149.305 256.266,149.964 246.396,161.013 
			244.936,203.625 242.178,246.684 		"/>
		<path style="fill:#5265FF;" d="M241.519,152.417c-3.49,2.726-34.25,32.21-34.25,32.21l-25.506-30.612l-11.744,9.396
			c0,0,17.902,27.212,26.131,38.95c6,8.559,11.973,7.189,19.307,2.355c19.549-12.884,39.145-31.372,39.145-31.372l1.664-23.38
			C251.077,149.674,245.769,149.098,241.519,152.417z"/>
		<path style="fill:#FFB5B3;" d="M302.569,266.334l-1.333,6c0,0-5.001,3.167-5.667,6.5c-0.666,3.333,0.167,5.167,1.75,3.833
			c0,0-2.417,9.166-0.25,10.333s12.833,0.333,13.667-3s2.501-11.831,1.5-14.332c-1-2.501,0.31-7.834,0.31-7.834L302.569,266.334z"/>
		<path style="fill:#5265FF;" d="M299.106,149.305c6.164,0,8.164,8.295,12.664,21.245c3.195,9.195,5.547,17.925,9.507,31.356
			c2.378,8.066,3.421,10.221,2.304,18.721c-1.656,12.593-4.372,41.438-6.561,51.624l-18-2.75l4.922-55.574L292.27,179.33
			L299.106,149.305z"/>
		<polygon style="fill:#FFFFFF;" points="280.521,149.591 270.519,192.75 273.06,239.5 283.27,246.684 256.266,246.684 265.519,240 
			266.627,192.5 259.769,149.91 		"/>
		<polygon style="fill:#5265FF;" points="273.06,239.5 303.942,261.75 303.942,246.684 		"/>
		<polygon style="fill:#5265FF;" points="265.519,240 237.969,260.677 242.605,240 		"/>
		
			<polyline style="fill:none;stroke:#282833;stroke-width:0.5;stroke-linecap:round;stroke-linejoin:round;stroke-miterlimit:10;" points="
			269.768,164.75 263.719,174.44 259.769,149.91 256.266,149.964 263.603,141.697 269.768,164.75 281.281,144.34 286.27,149.591 
			280.521,149.591 274.763,174.44 269.768,164.75 269.768,177.898 268.519,191.75 268.269,246.685 		"/>
		
			<polyline style="fill:none;stroke:#282833;stroke-width:0.5;stroke-linecap:round;stroke-linejoin:round;stroke-miterlimit:10;" points="
			286.27,149.591 285.436,182 280.77,182 284.603,185.833 271.268,205.833 270.519,192.75 274.763,174.44 		"/>
		
			<polyline style="fill:none;stroke:#282833;stroke-width:0.5;stroke-linecap:round;stroke-linejoin:round;stroke-miterlimit:10;" points="
			256.266,149.964 255.436,181.333 261.103,181.333 256.266,184.167 266.316,205.833 266.627,192.5 263.719,174.44 		"/>
		<polyline style="fill:none;stroke:#282833;stroke-width:0.5;stroke-miterlimit:10;" points="317.02,272.25 299.02,269.5 
			303.942,213.926 295.533,189 		"/>
		<path style="fill:none;stroke:#282833;stroke-width:0.5;stroke-miterlimit:10;" d="M209.269,193.5c-3-3.5-2-8.874-2-8.874
			s-2.75,1.374-3.25,4.624"/>
		<path style="fill:#282833;" d="M321.345,429.818l0.294,4.138c0,0,0.313,2.935,0.395,4.353c0.081,1.418-0.486,1.944-1.75,1.961
			s0,0-17.573,0.228c-10.176,0-20.087,0.077-20.087-2.165c0-7.078,9.963-10.421,9.965-10.422c2.854-1.361,3.849-2.634,5.619-5.306
			c0.511-0.771,2.578-2.14,5.81,0.203c2.261,1.638,4.993,7.942,10.618,8.236c3.398,0.178,4.625-0.794,5.256-2.086
			C320.138,428.456,321.345,429.818,321.345,429.818z"/>
		<g>
			<g>
				<path style="fill:#FFFFFF;" d="M300.752,440.248c-4.949,0-9.312-0.021-12.588-0.295c-4.372-0.364-5.29-1.082-5.29-1.62
					c0-3.794,2.997-6.493,5.553-8.105c4.069,1.219,5.536,6.777,5.55,6.833l0.048,0.189h0.194c4.828-0.001,25.063-0.228,27.464-0.256
					c0.044,0.493,0.08,0.963,0.101,1.33c0.036,0.631-0.064,1.063-0.304,1.321c-0.228,0.245-0.621,0.367-1.2,0.375l-17.573,0.228
					H300.752z"/>
				<path style="fill:#282833;" d="M288.463,430.5c3.845,1.242,5.258,6.568,5.272,6.623l0.097,0.376h0.388
					c4.718-0.001,23.903-0.216,27.235-0.254c0.034,0.405,0.063,0.785,0.081,1.092c0.031,0.552-0.048,0.935-0.238,1.137
					c-0.179,0.192-0.513,0.289-1.02,0.296l-2.67,0.035l-14.896,0.193h-0.983h-0.976c-4.943,0-9.301-0.021-12.567-0.294
					c-4.817-0.401-5.061-1.213-5.061-1.371C283.124,434.701,285.982,432.086,288.463,430.5 M288.389,429.956
					c-2.723,1.696-5.765,4.465-5.765,8.377c0,2.098,8.676,2.165,18.128,2.165c0.649,0,1.305,0,1.959,0
					c17.573-0.228,16.309-0.212,17.573-0.228s1.831-0.543,1.75-1.961c-0.024-0.426-0.07-0.989-0.122-1.568h0
					c0,0-22.525,0.258-27.692,0.259C294.22,436.999,292.726,431.162,288.389,429.956L288.389,429.956z"/>
			</g>
		</g>
		<path style="fill:none;stroke:#FFFFFF;stroke-width:0.5;stroke-linecap:round;stroke-linejoin:round;stroke-miterlimit:10;" d="
			M290.712,428.692c0,0,2.716-0.225,4.883,3.042"/>
		<path style="fill:none;stroke:#FFFFFF;stroke-width:0.5;stroke-linecap:round;stroke-linejoin:round;stroke-miterlimit:10;" d="
			M292.737,427.781c0,0,2.716-0.225,4.883,3.042"/>
		<path style="fill:none;stroke:#FFFFFF;stroke-width:0.5;stroke-linecap:round;stroke-linejoin:round;stroke-miterlimit:10;" d="
			M294.533,426.914c0,0,2.716-0.225,4.883,3.042"/>
		<path style="fill:#FFB5B3;" d="M282.997,118.632c0.211-1.017,2.084-3.721,4.915-2.707c2.456,0.882,2.208,4.401,0.718,6.63
			c-0.761,1.139-3.498,2.972-5.757,1.224"/>
		<path style="fill:#FFB5B3;" d="M283.331,118.606c1.196-6.245-0.334-15.193-4.596-18.987c-5.47-4.869-15.806-5.485-21.039-0.392
			c-9.391,9.144-3.135,19.504-4.082,23.069c0.711,9.235,6.438,16.324,16.15,15.577C279.48,137.126,284.042,127.841,283.331,118.606"
			/>
		<path style="fill:#FFB5B3;" d="M277.524,128.899c-0.039,1.563,2.337,12.213,3.757,15.44l-11.513,20.41l-6.164-23.053
			c0,0,1.176-5.206-1.633-12.705"/>
		<g>
			<path style="fill:#282833;" d="M265.238,112.817c0,0,0.405-0.128,0.995-0.175c0.591-0.056,1.366-0.033,2.129,0.079
				c0.765,0.1,1.518,0.296,2.076,0.49c0.559,0.189,0.921,0.396,0.921,0.396c0.259,0.147,0.35,0.477,0.203,0.737
				c-0.074,0.13-0.196,0.218-0.33,0.255c0-0.001-0.403,0.107-0.992,0.148c-0.589,0.046-1.367,0.045-2.132-0.052
				c-0.767-0.085-1.522-0.259-2.08-0.463c-0.558-0.195-0.918-0.422-0.918-0.422c-0.257-0.163-0.334-0.503-0.172-0.761
				C265.01,112.935,265.118,112.855,265.238,112.817z"/>
		</g>
		<path style="fill:#282833;" d="M268.197,118.674c0.055,0.713-0.228,1.318-0.637,1.35c-0.404,0.031-0.777-0.523-0.834-1.236
			c-0.055-0.711,0.23-1.316,0.637-1.347C267.771,117.409,268.143,117.962,268.197,118.674z"/>
		<path style="fill:#282833;" d="M257.641,119.757c0.055,0.713-0.228,1.317-0.637,1.348c-0.406,0.031-0.779-0.521-0.836-1.234
			c-0.055-0.713,0.23-1.317,0.639-1.349C257.213,118.491,257.584,119.045,257.641,119.757z"/>
		<g>
			<path style="fill:#282833;" d="M254.327,115.029c0,0,0.128-0.227,0.369-0.475c0.241-0.248,0.604-0.502,1.002-0.689
				c0.393-0.198,0.812-0.344,1.148-0.415c0.338-0.066,0.582-0.078,0.582-0.078c0.305-0.014,0.564,0.223,0.578,0.528
				c0.006,0.131-0.035,0.255-0.107,0.354c0,0-0.145,0.196-0.388,0.44c-0.246,0.24-0.6,0.508-0.983,0.724
				c-0.377,0.227-0.789,0.387-1.129,0.45c-0.34,0.063-0.6,0.043-0.6,0.043c-0.327-0.025-0.571-0.31-0.546-0.636
				C254.259,115.186,254.286,115.102,254.327,115.029z"/>
		</g>
		<path style="fill:none;stroke:#282833;stroke-width:0.5;stroke-linecap:round;stroke-miterlimit:10;" d="M260.531,115.402
			c0,0-0.975,8.852-0.438,10.149c0.389,0.941,2.77-1.396,3.877-0.758"/>
		<path style="fill:none;stroke:#282833;stroke-width:0.5;stroke-linecap:round;stroke-linejoin:round;stroke-miterlimit:10;" d="
			M282.9,119.324c0.577-1.113,2.759-2.338,4.14-1.46"/>
		<path style="fill:none;stroke:#282833;stroke-width:0.5;stroke-linecap:round;stroke-linejoin:round;stroke-miterlimit:10;" d="
			M283.676,118.438c0,0,2.896,0.353,1.102,4.081"/>
		<path style="fill:none;stroke:#282833;stroke-width:0.5;stroke-linecap:round;stroke-miterlimit:10;" d="M266.719,126.452
			c0,0-1.537,1.895-5.24,2.067"/>
		<path style="fill:none;stroke:#282833;stroke-width:0.5;stroke-linecap:round;stroke-miterlimit:10;" d="M277.952,134.427
			c-4.979,4.035-10.506,3.886-14.587,2.669"/>
		<path style="fill:#F2A61C;" d="M281.457,120.59c-1.304-1.257-2.043-2.992-2.391-4.744c-0.109-0.55-0.58-5.213-0.228-5.335
			c-1.411,0.492-2.686,0.153-3.818-0.842c-1.417-1.245-1.468-2.596-2.102-4.158c-3.098,3.753-11.158,4.303-13.317-0.733
			c-0.228,1.425-1.522,3.634-2.599,4.621c-1.389,1.271-2.893,1.434-4.617,1.429c0.285,1.048-0.47,2.467-1.305,3.151
			c-1.314,1.077-2.809,0.456-3.98-0.562c-4.186-3.634-4.203-9.69-1.998-14.333c1.539-3.242,5.158-5.857,8.736-4.765
			c-0.23-3.587,4.457-6.313,7.348-6.967c3.748-0.849,6.905-0.07,9.233,2.973c0.402-1.542,2.036-2.8,3.539-3.158
			c2.364-0.562,5.498,0.332,7.484,1.664c4.155,2.787,6.917,7.981,7.526,12.816c0.789,6.269,0.053,11.666-2.197,14.103
			c0,0-3.802,0-3.946,4.832C282.806,121.152,282.207,121.313,281.457,120.59z"/>
		
			<polyline style="fill:none;stroke:#FFFFFF;stroke-width:0.5;stroke-linecap:round;stroke-linejoin:round;stroke-miterlimit:10;" points="
			269.768,291.75 267.936,281.167 263.603,279.916 263.603,252.218 		"/>
		
			<line style="fill:none;stroke:#FFFFFF;stroke-width:0.5;stroke-linecap:round;stroke-linejoin:round;stroke-miterlimit:10;" x1="290.712" y1="252.218" x2="249.24" y2="252.218"/>
		
			<line style="fill:none;stroke:#FFFFFF;stroke-width:0.5;stroke-linecap:round;stroke-linejoin:round;stroke-miterlimit:10;" x1="319.394" y1="406.688" x2="290.943" y2="405.381"/>
		
			<line style="fill:none;stroke:#FFFFFF;stroke-width:0.5;stroke-linecap:round;stroke-linejoin:round;stroke-miterlimit:10;" x1="259.862" y1="396.75" x2="232.283" y2="405.669"/>
	</g>
	<g>
		<path style="fill:#FF9184;" d="M519.465,109.31c-5.233-4.095-12.265-5.753-18.609-2.8c-2.782,1.295-5.026,2.848-6.88,5.279
			c-1.792,2.349-4.113,4.814-6.625,6.377c-3.048,1.897-6.851,2.726-9.424,5.302c-2.466,2.47-2.475,4.941-2.297,8.045
			c-5.239,2.188-4.623,8.679,0.33,10.597c0.906,6.753,12.29,6.895,16.661,4.377c6.357-3.663,7.675-11.969,9.594-18.439
			c0.729-2.462,1.643-4.876,2.391-7.247c0.686-2.172,0.905-5.158,2.179-7.209"/>
		<path style="fill:#FFB5B3;" d="M535.846,221.355c0,0,0.836,10.567,0.911,11.517c0.074,0.948,4.529,0.166,6.801-0.756
			c2.272-0.923,0.413-2.974,0-4.111l4.545-4.462l-3.682-10.744"/>
		<path style="fill:#FFB5B3;" d="M500.053,141.123c0,0,2.045,7.375-0.118,12.986c0,0,2.533,7.671,9.151,7.671
			c6.619,0,6.833-7.044,6.833-7.044s-0.968-9.688,0-13.097"/>
		<path style="fill:#FFB5B3;" d="M494.478,129.186c0,10.223,9.207,17.548,14.49,17.548c5.281,0,14.397-7.251,14.397-16.196v-9.839
			l-8.837-5.422l-10.084-5.882c0,0-4.355,3.026-5.203,3.866c-0.847,0.84-4.089,8.235-4.089,8.235L494.478,129.186z"/>
		<path style="fill:#FFB5B3;" d="M486.569,241.445l-4.204,99.337l6.708,83.43l7.411,8.132l8.646-2.003l-2.557-87.389l11.935-90.224
			C523.148,233.605,492.481,219.745,486.569,241.445z"/>
		<path style="fill:#FFB5B3;" d="M508.057,241.445l8.602,99.337l10.211,89.733l15.81,1.828l-3.836-89.392l-2.848-90.224
			C544.637,233.605,513.969,219.745,508.057,241.445z"/>
		<path style="fill:#F2A61C;" d="M481.213,241.445l5.308-87.335h10.08c0,0,0.138,16.958,9.687,16.958
			c9.549,0,12.633-16.958,12.633-16.958h11.605l7.08,89.497H480.85L481.213,241.445z"/>
		<g>
			<rect x="520.188" y="435.209" style="fill:#FFFFFF;" width="22.94" height="4.022"/>
			<path style="fill:#282833;" d="M542.879,435.459v3.521h-22.44v-3.521H542.879 M543.379,434.959h-23.44v4.521h23.44V434.959
				L543.379,434.959z"/>
		</g>
		<path style="fill:#F2A61C;" d="M535.256,155.83c0,0,36.203,23.65,41.559,28.916c5.356,5.269,5.088,14.177,0,18.862
			C571.727,208.295,548,226.434,548,226.434l-8.366-12.497l24.594-19.727c0,0-31.959-19.903-37.006-24.306
			C518.518,162.312,528.56,149.453,535.256,155.83z"/>
		<path style="fill:#FFB5B3;" d="M494.478,129.186c-0.207-0.962-1.707-3.429-3.694-2.242c-1.722,1.03-1.347,4.401-0.148,6.437
			c0.612,1.04,2.688,2.695,4.517,0.539"/>
		<path style="fill:none;stroke:#282833;stroke-width:0.5;stroke-linecap:round;stroke-linejoin:round;stroke-miterlimit:10;" d="
			M491.233,128.395c2.096-0.958,3.266,1.636,3.455,3.452"/>
		<path style="fill:none;stroke:#282833;stroke-width:0.5;stroke-linecap:round;stroke-linejoin:round;stroke-miterlimit:10;" d="
			M492.97,132.782c-0.598-1.257,0.027-3.708,0.942-3.35"/>
		<path style="fill:#FF9184;" d="M503.685,111.067c-0.084,7.266,10.978,6.844,15.488,10.06c3.323,2.37,4.051,5.564,4.051,9.552
			l0.141-0.141l0,0c1.973-5.897,1.33-14.372-2.904-20.353c-4.258-6.018-13.66-7.335-19.753-2.886
			c-7.917,5.782-7.745,14.067-5.964,22.93c0,0,0.904-6.435,5.891-10.224C503.395,117.906,503.685,114.408,503.685,111.067"/>
		<g>
			<path style="fill:#282833;" d="M509.084,125.895c0,0-0.387,0.281-1.004,0.56c-0.614,0.288-1.457,0.576-2.321,0.775
				c-0.861,0.213-1.746,0.331-2.422,0.374c-0.674,0.047-1.143,0.001-1.143,0.001c-0.291-0.029-0.504-0.289-0.475-0.581
				c0.017-0.164,0.108-0.304,0.235-0.39c0,0,0.393-0.26,1.01-0.533c0.617-0.277,1.455-0.587,2.315-0.802
				c0.858-0.228,1.737-0.367,2.415-0.4c0.676-0.042,1.15,0.025,1.15,0.025c0.295,0.042,0.5,0.314,0.458,0.609
				C509.28,125.684,509.198,125.812,509.084,125.895z"/>
		</g>
		<path style="fill:#282833;" d="M506.383,130.934c0,0.708,0.327,1.282,0.731,1.282c0.403,0,0.73-0.575,0.73-1.282
			c0-0.709-0.326-1.284-0.73-1.284C506.71,129.65,506.383,130.225,506.383,130.934z"/>
		<path style="fill:#282833;" d="M517.624,131.201c0,0.708,0.327,1.283,0.73,1.283s0.731-0.575,0.731-1.283
			c0-0.708-0.328-1.283-0.731-1.283S517.624,130.493,517.624,131.201z"/>
		<g>
			<path style="fill:#282833;" d="M520.201,128.08c0,0-0.321-0.023-0.751-0.149c-0.431-0.126-0.961-0.369-1.453-0.678
				c-0.498-0.298-0.968-0.647-1.298-0.947c-0.328-0.304-0.527-0.54-0.527-0.54c-0.189-0.224-0.162-0.559,0.062-0.749
				c0.125-0.106,0.287-0.144,0.437-0.118c0,0,0.304,0.054,0.732,0.184c0.426,0.134,0.964,0.363,1.473,0.644
				c0.515,0.27,0.992,0.605,1.317,0.913c0.325,0.308,0.508,0.574,0.508,0.574c0.173,0.253,0.108,0.598-0.145,0.771
				C520.447,128.058,520.322,128.088,520.201,128.08z"/>
		</g>
		<path style="fill:none;stroke:#282833;stroke-width:0.5;stroke-linecap:round;stroke-miterlimit:10;" d="M513.706,127.119
			c0,0,1.636,8.668,1.205,9.991c-0.313,0.959-2.843-1.169-3.889-0.454"/>
		<path style="fill:none;stroke:#282833;stroke-width:0.5;stroke-linecap:round;stroke-miterlimit:10;" d="M514.667,139.188
			c0,0-4.602,3.137-7.287-1.457"/>
		<path style="fill:none;stroke:#282833;stroke-width:0.5;stroke-linecap:round;stroke-miterlimit:10;" d="M515.54,144.174
			c-4.541,3.404-9.586,3.38-15.118-1.721"/>
		<path style="fill:none;stroke:#282833;stroke-width:0.5;stroke-linecap:round;stroke-linejoin:round;stroke-miterlimit:10;" d="
			M571.03,194.209c-3.201-1.137-6.803,0-6.803,0s2.258-2.995,4.015-2.891"/>
		<path style="fill:#282833;" d="M506.444,429.615l0.29,4.089c0,0,0.31,2.899,0.391,4.301c0.081,1.4-0.48,1.921-1.729,1.938
			s0,0-17.363,0.226c-10.056,0-19.85,0.076-19.85-2.14c0-6.994,9.846-10.297,9.847-10.298c2.82-1.345,3.804-2.603,5.552-5.242
			c0.506-0.763,2.548-2.114,5.742,0.2c2.233,1.618,4.934,7.849,10.492,8.139c3.357,0.176,4.569-0.784,5.193-2.061
			C505.251,428.27,506.444,429.615,506.444,429.615z"/>
		<g>
			<g>
				<path style="fill:#FFFFFF;" d="M486.098,439.918c-4.891,0-9.203-0.021-12.439-0.291c-4.319-0.36-5.226-1.068-5.226-1.599
					c0-3.745,2.96-6.412,5.485-8.006c4.013,1.204,5.466,6.694,5.48,6.751l0.048,0.188h0.194c4.77-0.001,24.751-0.227,27.136-0.253
					c0.043,0.486,0.079,0.949,0.099,1.311c0.036,0.622-0.061,1.049-0.299,1.304c-0.225,0.241-0.612,0.362-1.184,0.37l-17.363,0.226
					H486.098z"/>
				<path style="fill:#282833;" d="M473.954,430.295c3.793,1.23,5.189,6.486,5.202,6.54l0.097,0.376h0.388
					c4.643-0.001,23.683-0.214,26.906-0.251c0.034,0.398,0.063,0.771,0.079,1.074c0.031,0.542-0.047,0.918-0.232,1.117
					c-0.177,0.189-0.505,0.284-1.005,0.291l-2.639,0.034l-14.718,0.191h-0.971h-0.964c-4.885,0-9.191-0.021-12.419-0.29
					c-4.755-0.396-4.996-1.194-4.996-1.35C468.683,434.444,471.504,431.861,473.954,430.295 M473.88,429.751
					c-2.69,1.677-5.697,4.412-5.697,8.277c0,2.073,8.573,2.14,17.915,2.14c0.642,0,1.288,0,1.935,0
					c17.363-0.226,16.114-0.209,17.363-0.226s1.811-0.537,1.729-1.938c-0.023-0.421-0.068-0.978-0.12-1.55
					c0,0-22.258,0.255-27.364,0.256C479.641,436.711,478.164,430.943,473.88,429.751L473.88,429.751z"/>
			</g>
		</g>
		<path style="fill:none;stroke:#FFFFFF;stroke-width:0.5;stroke-linecap:round;stroke-linejoin:round;stroke-miterlimit:10;" d="
			M475.733,428.5c0,0,3.126-0.22,5.266,3.009"/>
		<path style="fill:none;stroke:#FFFFFF;stroke-width:0.5;stroke-linecap:round;stroke-linejoin:round;stroke-miterlimit:10;" d="
			M477.833,427.599c0,0,3.027-0.219,5.167,3.01"/>
		<path style="fill:none;stroke:#FFFFFF;stroke-width:0.5;stroke-linecap:round;stroke-linejoin:round;stroke-miterlimit:10;" d="
			M479.47,426.601c0,0,3.165-0.077,5.307,3.15"/>
		<path style="fill:#282833;" d="M544.038,430.012c1.083,2.721,1.331,5.133,1.5,8.052c0.079,1.362-0.467,1.869-1.683,1.885
			c-1.214,0.017,0,0-16.895,0.22c-9.783,0-12.584,0.074-12.584-2.081c0-6.807,4.901-9.458,4.902-9.459
			c2.81-1.714,2.994-3.159,4.424-5.464c0.09-0.145,0.655-0.746,1.058-0.89c1.648-0.589,5.459-0.926,7.961,0.886
			c2.173,1.575,0.296,7.636,5.704,7.919c3.248,0.17,4.048-1.433,4.035-2.53C542.458,428.298,543.663,429.065,544.038,430.012z"/>
		<g>
			<g>
				<path style="fill:#FFFFFF;" d="M525.155,439.918c-8.172,0-10.528-0.078-10.528-1.831c0-3.665,0.453-5.984,2.769-6.992
					c0.872-0.38,1.807-0.572,2.777-0.572c5.614,0,10.999,6.377,11.053,6.441l0.075,0.09h0.117
					c4.469-0.001,12.318-0.204,13.775-0.243c0.041,0.471,0.076,0.916,0.095,1.267c0.035,0.604-0.059,1.017-0.288,1.264
					c-0.218,0.233-0.594,0.351-1.148,0.357l-16.894,0.22H525.155z"/>
				<path style="fill:#282833;" d="M520.175,430.273v0.5c5.494,0,10.808,6.287,10.86,6.351l0.15,0.18h0.233
					c4.27-0.001,11.622-0.187,13.546-0.236c0.031,0.38,0.059,0.734,0.074,1.025c0.03,0.523-0.045,0.886-0.223,1.077
					c-0.168,0.182-0.485,0.273-0.968,0.278l-2.566,0.034l-14.321,0.186h-0.945h-0.86c-7.809,0-10.278-0.071-10.278-1.581
					c0-3.647,0.418-5.805,2.619-6.763c0.841-0.366,1.741-0.551,2.678-0.551L520.175,430.273 M520.174,430.273
					c-0.957,0-1.924,0.178-2.877,0.592c-2.445,1.064-2.92,3.46-2.92,7.222c0,2.017,2.45,2.081,10.778,2.081c0.573,0,1.176,0,1.806,0
					c16.895-0.22,15.681-0.203,16.895-0.22c1.216-0.016,1.762-0.522,1.683-1.885c-0.022-0.41-0.066-0.951-0.116-1.509
					c0,0-9.035,0.248-14.003,0.249C531.419,436.804,525.974,430.272,520.174,430.273L520.174,430.273z"/>
			</g>
		</g>
		<path style="fill:none;stroke:#FFFFFF;stroke-width:0.5;stroke-linecap:round;stroke-linejoin:round;stroke-miterlimit:10;" d="
			M517.852,429.473c0,0,5.214-2.104,10.982,1.16"/>
		<path style="fill:none;stroke:#FFFFFF;stroke-width:0.5;stroke-linecap:round;stroke-linejoin:round;stroke-miterlimit:10;" d="
			M520.569,427.435c0,0,5.712-1.169,8.852,1.114"/>
		<path style="fill:none;stroke:#FFFFFF;stroke-width:0.5;stroke-linecap:round;stroke-linejoin:round;stroke-miterlimit:10;" d="
			M522.052,425.75c0,0,3.989-1.407,7.128,0.516"/>
		<polygon style="fill:#282833;" points="480.85,243.606 475.733,343.825 475.733,357 506.951,356.834 507.103,343.475 
			508.652,289.775 515.539,357 546.467,357 545.546,344.813 537.606,243.606 		"/>
		<g>
			<path style="fill:#FFFFFF;" d="M490.265,278.107c0,1.1-0.873,1.78-1.939,1.512l-27.88-7.018
				c-1.066-0.269-1.939-1.389-1.939-2.488v-24.506c0-1.1,0.873-1.78,1.939-1.512l27.88,7.018c1.066,0.269,1.939,1.388,1.939,2.488
				V278.107z"/>
			<path style="fill:none;stroke:#282833;stroke-width:0.5;stroke-miterlimit:10;" d="M490.265,278.107
				c0,1.1-0.873,1.78-1.939,1.512l-27.88-7.018c-1.066-0.269-1.939-1.389-1.939-2.488v-24.506c0-1.1,0.873-1.78,1.939-1.512
				l27.88,7.018c1.066,0.269,1.939,1.388,1.939,2.488V278.107z"/>
		</g>
		<path style="fill:#FFB5B3;" d="M466.2,263.926c0,0-0.233,8.731,1.72,11.102c2.618,3.179,10.784,4.37,11.501,2.222
			c0.309-1.033-3.159-3.808-3.926-4.649c-1.032-1.135-0.413-7.644-0.413-7.644L466.2,263.926z"/>
		<path style="fill:#F2A61C;" d="M478.911,161.064l-12.344,50.134c0,0-2.147,46.819-1.982,54.586l11.904,0.762
			c0.328-7.577,2.161-51.714,2.161-51.714s12.128-43.129,14.165-50.435C495.762,153.821,481.379,149.324,478.911,161.064z"/>
		<path style="fill:none;stroke:#282833;stroke-width:0.5;stroke-miterlimit:10;" d="M487.467,255.309
			c0.036,1.091-0.432,1.992-1.045,2.013c-0.613,0.021-1.141-0.847-1.177-1.937c-0.037-1.092,0.432-1.992,1.044-2.013
			C486.902,253.351,487.43,254.218,487.467,255.309z"/>
		<polyline style="fill:none;stroke:#282833;stroke-width:0.5;stroke-linecap:round;stroke-miterlimit:10;" points="
			485.435,171.964 481.58,192.762 483.773,196.608 480.85,243.606 		"/>
		
			<line style="fill:none;stroke:#282833;stroke-width:0.5;stroke-linecap:round;stroke-miterlimit:10;" x1="564.227" y1="194.209" x2="529.915" y2="171.964"/>
		<polygon style="fill:none;stroke:#282833;stroke-width:0.5;stroke-linecap:round;stroke-miterlimit:10;" points="524.727,179.481 
			525.596,191.831 510.07,192.071 511.101,179.481 		"/>
		
			<line style="fill:none;stroke:#282833;stroke-width:0.5;stroke-linecap:round;stroke-miterlimit:10;" x1="496.601" y1="154.109" x2="499.935" y2="154.109"/>
		
			<line style="fill:none;stroke:#282833;stroke-width:0.5;stroke-linecap:round;stroke-miterlimit:10;" x1="518.92" y1="154.109" x2="515.861" y2="154.111"/>
	</g>
	<g>
		<path style="fill:#FFFFFF;" d="M409.986,135.337l-8.743-1.664h-16.341l-9.196,1.664c0,0-0.14,9.529,0.122,10.046
			c0.262,0.517,4.453,5.166,5.887,5.683c1.435,0.517,10.398,2.239,13.58,1.894c3.181-0.344,7.83-2.411,10.413-4.305
			c2.583-1.894,5.306-6.888,5.58-7.749C411.563,140.045,409.986,135.337,409.986,135.337z"/>
		<path style="fill:#F2A61C;" d="M417.238,136.854c4.828-2.919,10.376-0.48,15.677,5.654c5.502,6.366,21.757,25.774,29.634,36.486
			c4.336,5.896,3.601,14.505-5.365,16.189c-8.922,1.676-49.754,7.37-49.754,7.37l-3.961-16.522l36.068-5.76
			c0,0-18.451-20.815-23.604-27.093C411.623,147.926,412.685,139.606,417.238,136.854z"/>
		<rect x="407.201" y="400.195" style="fill:#FFB5B3;" width="16.013" height="23.95"/>
		<polygon style="fill:#FFB5B3;" points="335.157,424.146 338.99,401.866 353.972,402.563 349.444,424.146 		"/>
		<path style="fill:#5265FF;" d="M425.139,239.249l0.918,82.574l2.799,85.82l-27.151,3.253l-9.489-140.324
			c-3.783-7.667-4.589-26.033,1.74-33.967C402.926,225.362,421.469,226.92,425.139,239.249z"/>
		<path style="fill:#5265FF;" d="M395.795,239.25l-3.58,31.322l-10.436,55.873l-19.294,84.451l-28.698-2.134l14.104-91.201
			l9.746-75.938C360.594,222.128,391.235,218.222,395.795,239.25z"/>
		<path style="fill:#F2A61C;" d="M424.717,236.739l-3.162-101.185l-11.568-0.217c0,0-3.014,12.974-17.771,12.974
			c-14.76,0-16.509-12.974-16.509-12.974h-13.474l-4.076,103.913l66.982-0.001L424.717,236.739z"/>
		<path style="fill:#FFB5B3;" d="M385.962,120.263c0,0,0.15,10.032-1.06,13.41c0,0,1.045,7.922,8.17,7.922s8.171-7.922,8.171-7.922
			s-1.212-10.384-0.455-13.712L385.962,120.263z"/>
		<path style="fill:#FFB5B3;" d="M378.544,107.956c-0.22-1.029-1.825-3.664-3.946-2.396c-1.84,1.102-1.441,4.703-0.161,6.879
			c0.655,1.112,2.872,2.781,4.507,0.803"/>
		<path style="fill:none;stroke:#282833;stroke-width:0.5;stroke-linecap:round;stroke-linejoin:round;stroke-miterlimit:10;" d="
			M375.077,107.11c2.24-1.023,3.439,2.172,3.484,3.569"/>
		<path style="fill:none;stroke:#282833;stroke-width:0.5;stroke-linecap:round;stroke-linejoin:round;stroke-miterlimit:10;" d="
			M376.932,111.799c-0.641-1.345-0.111-3.935,0.865-3.552"/>
		<path style="fill:#FFB5B3;" d="M408.172,113.245c1.636,1.977,3.853,0.309,4.508-0.803c1.279-2.175,1.68-5.777-0.159-6.878
			c-2.125-1.269-3.966,0.89-4.015,3.838"/>
		<path style="fill:none;stroke:#282833;stroke-width:0.5;stroke-linecap:round;stroke-linejoin:round;stroke-miterlimit:10;" d="
			M412.039,107.115c-2.24-1.025-3.438,2.169-3.484,3.567"/>
		<path style="fill:none;stroke:#282833;stroke-width:0.5;stroke-linecap:round;stroke-linejoin:round;stroke-miterlimit:10;" d="
			M410.329,111.801c0.638-1.343-0.071-3.886-1.05-3.499"/>
		<path style="fill:#FFB5B3;" d="M378.035,107.956c-1.723-6.33-0.858-15.659,3.225-19.901c5.243-5.441,15.527-6.504,21.616-2.068
			c6.724,4.899,7.449,14.077,6.028,22.275v1.139c0,9.558-5.329,17.306-15.384,17.306
			C383.464,126.707,378.035,117.515,378.035,107.956"/>
		<path style="fill:#282833;" d="M399.661,105.813c0,0.876,0.545,1.586,1.218,1.586c0.672,0,1.216-0.71,1.216-1.586
			c0-0.877-0.544-1.586-1.216-1.586C400.206,104.226,399.661,104.936,399.661,105.813z"/>
		<path style="fill:#282833;" d="M385.6,105.813c0,0.876,0.545,1.586,1.215,1.586c0.674,0,1.217-0.71,1.217-1.586
			c0-0.877-0.543-1.586-1.217-1.586C386.145,104.226,385.6,104.936,385.6,105.813z"/>
		<g>
			<path style="fill:#282833;" d="M404.051,101.447c0,0-0.322,0.067-0.795,0.094c-0.474,0.025-1.097-0.004-1.712-0.09
				c-0.616-0.08-1.224-0.223-1.676-0.362c-0.451-0.146-0.747-0.282-0.747-0.282c-0.263-0.121-0.378-0.432-0.257-0.694
				c0.074-0.161,0.224-0.268,0.386-0.297c0,0,0.32-0.056,0.794-0.081c0.472-0.019,1.097-0.004,1.713,0.077
				c0.617,0.074,1.227,0.206,1.678,0.35c0.451,0.147,0.745,0.294,0.745,0.294c0.262,0.13,0.367,0.448,0.237,0.71
				C404.342,101.315,404.203,101.415,404.051,101.447z"/>
		</g>
		<g>
			<path style="fill:#282833;" d="M384.053,100.133c0,0,0.303-0.127,0.763-0.245c0.46-0.115,1.076-0.207,1.696-0.241
				c0.62-0.041,1.244-0.016,1.715,0.034c0.47,0.056,0.786,0.133,0.786,0.133c0.281,0.068,0.454,0.351,0.386,0.632
				c-0.042,0.173-0.168,0.306-0.321,0.366c0,0-0.304,0.116-0.764,0.232c-0.46,0.109-1.075,0.213-1.695,0.253
				c-0.62,0.045-1.243,0.034-1.714-0.022c-0.471-0.057-0.787-0.145-0.787-0.145c-0.282-0.078-0.447-0.37-0.369-0.651
				C383.793,100.318,383.91,100.194,384.053,100.133z"/>
		</g>
		<path style="fill:none;stroke:#282833;stroke-width:0.5;stroke-linecap:round;stroke-miterlimit:10;" d="M393.81,99.548
			c0,2.769-3.053,8.54-1.918,10.318c0.975,1.527,2.674,0.154,4.02,1.583"/>
		<path style="fill:#FFFFFF;" d="M398.54,114.688c-0.85-1.49-9.312-0.719-10.048,0.065c-0.737,0.785,3.081,4.179,5.02,4.179
			C395.451,118.932,399.325,116.06,398.54,114.688z"/>
		<path style="fill:none;stroke:#282833;stroke-width:0.5;stroke-miterlimit:10;" d="M400.645,125.112c0,0-8.161,3.809-15.045-0.747
			"/>
		
			<line style="fill:none;stroke:#FFFFFF;stroke-width:0.5;stroke-miterlimit:10;" x1="358.157" y1="239.25" x2="425.139" y2="239.25"/>
		<path style="fill:#FF9184;" d="M350.27,436.448c0,0,0.838-8.213,0-12.47c-0.272-1.383-7.63-2.777-9.023-3.364
			c-2.879-4.335-7.873-2.32-8.443-1.829c-1.186,1.023-2.103,3.788-2.103,3.788c-6.141,2.161-10.72,6.823-10.72,13.875"/>
		<g>
			<path style="fill:#282833;" d="M319.92,439.015v-2.127c0.049-2.374,0.685-7.898,5.512-7.898c0.161,0,0.324,0.007,0.493,0.019
				c3.822,0.283,5.6,4.044,5.989,7.469l0.025,0.222h18.081v2.316H319.92z"/>
			<path style="fill:#FFFFFF;" d="M325.434,429.239L325.434,429.239c0.154,0,0.312,0.007,0.473,0.019
				c3.669,0.271,5.381,3.922,5.759,7.247l0.05,0.443h0.446h17.607v1.816h-29.6v-1.87
				C320.218,434.593,320.826,429.24,325.434,429.239 M325.433,428.739c-4.05,0.001-5.671,3.741-5.762,8.145v0.004v2.377h30.6v-2.816
				h-18.107c-0.389-3.422-2.226-7.394-6.219-7.689C325.769,428.746,325.599,428.739,325.433,428.739L325.433,428.739z"/>
		</g>
		<path style="fill:none;stroke:#FFFFFF;stroke-width:0.5;stroke-linecap:round;stroke-miterlimit:10;" d="M323.793,425.894
			c1.794-1.21,7.566-1.312,10.135,1.082"/>
		<path style="fill:none;stroke:#FFFFFF;stroke-width:0.5;stroke-linecap:round;stroke-miterlimit:10;" d="M327.496,423.624
			c1.644-0.68,4.564-1.318,8.066,1.309"/>
		<path style="fill:#FF9184;" d="M404.063,436.566c0,0,0.145-8.251,2.816-12.361l15.91-5.111c0,0,0.422-1.694,1.665-2.018
			c1.054-0.274,1.729,0.927,1.729,0.927l4.868,7.883l5.862,2.469c4.725,0.62,10.048,1.398,9.583,8.389"/>
		<g>
			<path style="fill:#282833;" d="M437.897,439.248c-10.079,0-31.068-0.192-33.592-0.217l0.006-2.214l32.875,0.146
				c0,0-0.02-7.898-0.021-8.411c0.005-0.001,0.011-0.001,0.018-0.001c0.844,0,3.495,0.409,3.646,0.443
				c2.865,0.701,6.183,2.439,5.69,6.723c-0.013,0.106-0.023,0.223-0.032,0.346c-0.088,1.109-0.209,2.629-3.189,3.124
				C443.133,439.216,442.063,439.248,437.897,439.248z"/>
			<path style="fill:#FFFFFF;" d="M437.416,428.81c0.98,0.055,3.157,0.387,3.349,0.427c4.032,0.987,5.884,3.158,5.504,6.452
				c-0.013,0.11-0.022,0.229-0.032,0.354c-0.086,1.085-0.194,2.435-2.979,2.898c-0.145,0.021-1.033,0.057-5.36,0.057
				c-9.801,0-29.922-0.183-33.34-0.214l0.004-1.716l32.373,0.145l0.503,0.002l-0.001-0.503
				C437.424,431.538,437.418,429.561,437.416,428.81 M437.183,428.303c-0.169,0-0.268,0.015-0.268,0.052
				c0.002,0.022,0.021,8.358,0.021,8.358l-32.873-0.146l-0.008,2.713c0,0,23.038,0.219,33.842,0.219
				c3.081,0,5.168-0.017,5.441-0.063c3.508-0.584,3.302-2.598,3.428-3.689c0.467-4.052-2.301-6.118-5.882-6.995
				C440.708,428.711,438.046,428.303,437.183,428.303L437.183,428.303z"/>
		</g>
		<path style="fill:none;stroke:#FFFFFF;stroke-width:0.5;stroke-linecap:round;stroke-linejoin:round;stroke-miterlimit:10;" d="
			M431.243,425.636c0,0-2.909,0.756-5.392,4.924"/>
		<path style="fill:none;stroke:#FFFFFF;stroke-width:0.5;stroke-linecap:round;stroke-linejoin:round;stroke-miterlimit:10;" d="
			M430.316,424.285c0,0-4.435,0.879-6.429,4.754"/>
		<path style="fill:none;stroke:#FFFFFF;stroke-width:0.5;stroke-linecap:round;stroke-linejoin:round;stroke-miterlimit:10;" d="
			M429.768,422.713c0,0-4.293,0.129-6.895,4.017"/>
		<path style="fill:none;stroke:#FFFFFF;stroke-width:0.5;stroke-linecap:round;stroke-linejoin:round;stroke-miterlimit:10;" d="
			M414.779,429.8c0.531,1.874-0.557,3.822-2.428,4.353c-1.871,0.533-3.82-0.553-4.352-2.426c-0.533-1.871,0.555-3.818,2.425-4.351
			C412.299,426.842,414.248,427.928,414.779,429.8z"/>
		<path style="fill:none;stroke:#FFFFFF;stroke-width:0.5;stroke-linecap:round;stroke-linejoin:round;stroke-miterlimit:10;" d="
			M348.18,429.516c0.443,1.871-0.46,3.816-2.015,4.346c-1.552,0.532-3.171-0.553-3.612-2.421c-0.441-1.869,0.461-3.813,2.013-4.344
			C346.121,426.564,347.739,427.647,348.18,429.516z"/>
		<path style="fill:none;stroke:#FFFFFF;stroke-width:0.5;stroke-miterlimit:10;" d="M373.937,239.249
			c0,12.277-8.032,18.855-18.916,18.89"/>
		<path style="fill:none;stroke:#FFFFFF;stroke-width:0.5;stroke-miterlimit:10;" d="M370.493,239.249
			c0,4.288-1.288,14.619-14.549,15.566"/>
		<path style="fill:none;stroke:#FFFFFF;stroke-width:0.5;stroke-miterlimit:10;" d="M408.927,239.249
			c0,12.277,7.081,19.323,16.427,19.357"/>
		<path style="fill:none;stroke:#FFFFFF;stroke-width:0.5;stroke-miterlimit:10;" d="M412.682,239.249
			c0,4.288,0.757,15.05,12.636,15.566"/>
		
			<line style="fill:none;stroke:#FFFFFF;stroke-width:0.5;stroke-miterlimit:10;" x1="392.215" y1="270.572" x2="391.647" y2="239.25"/>
		<path style="fill:#FFFFFF;" d="M388.746,241.9c0,0.381,0.309,0.689,0.689,0.689c0.38,0,0.688-0.308,0.688-0.689
			c0-0.38-0.308-0.689-0.688-0.689C389.055,241.212,388.746,241.52,388.746,241.9z"/>
		
			<line style="fill:none;stroke:#FFFFFF;stroke-width:0.5;stroke-linecap:round;stroke-miterlimit:10;" x1="363.691" y1="405.616" x2="334.599" y2="403.513"/>
		
			<line style="fill:none;stroke:#FFFFFF;stroke-width:0.5;stroke-linecap:round;stroke-miterlimit:10;" x1="428.855" y1="401.866" x2="401.236" y2="404.565"/>
		<path style="fill:#FFB5B3;" d="M383.49,202.553c0,0-2.879,0.473-3.416,2.8c-0.535,2.327,0.709,2.107,0.709,2.107l2.707-1.717
			V202.553z"/>
		
			<line style="fill:none;stroke:#282833;stroke-width:0.5;stroke-miterlimit:10;" x1="423.576" y1="200.27" x2="409.986" y2="202.195"/>
		<path style="fill:none;stroke:#282833;stroke-width:0.5;stroke-miterlimit:10;" d="M407.946,185.333l31.591-5.062
			c0,0,5.26,0.93,7.326,3.685"/>
		<path style="fill:none;stroke:#282833;stroke-width:0.5;stroke-miterlimit:10;" d="M445.486,180.271c0,0-2.601-1.962-5.949,0
			c0,0-16.959-19.288-17.49-19.869"/>
		<g>
			<path style="fill:#FFFFFF;" d="M383.49,220.012c0,1.1,0.9,2,2,2h24.773c1.1,0,2-0.9,2-2V181.65c0-1.1-0.9-2-2-2H385.49
				c-1.1,0-2,0.9-2,2V220.012z"/>
		</g>
		<path style="fill:#FFB5B3;" d="M380.074,205.354c0,0,10.931,1.161,12.255,1.849c1.325,0.688-0.741,11.958-3.583,12.092
			c-2.842,0.134-7.741-2.104-12.523-4.859L380.074,205.354z"/>
		<path style="fill:#F2A61C;" d="M356.668,139.271c0,0-24.643,38.746-28.282,46.672c-3.639,7.928,0.328,17.485,7.784,20.47
			c7.456,2.987,40.692,12.881,40.692,12.881l3.922-17.016l-32.877-12.004c0,0,19.628-32.187,23.29-39.047
			C377.51,139.398,361.303,129.587,356.668,139.271z"/>
		<path style="fill:none;stroke:#282833;stroke-width:0.5;stroke-miterlimit:10;" d="M395.295,190.628
			c0,1.427,1.156,2.583,2.582,2.583c1.427,0,2.584-1.156,2.584-2.583c0-1.427-1.157-2.583-2.584-2.583
			C396.451,188.045,395.295,189.201,395.295,190.628z"/>
		<path style="fill:none;stroke:#282833;stroke-width:0.5;stroke-miterlimit:10;" d="M376.861,219.294l-17.711-5.371
			L376.861,219.294z"/>
		<path style="fill:none;stroke:#282833;stroke-width:0.5;stroke-miterlimit:10;" d="M376.861,219.294l3.922-17.016l-32.877-12.004
			c0,0-4.19-0.292-7.29,1.774"/>
		<path style="fill:none;stroke:#282833;stroke-width:0.5;stroke-miterlimit:10;" d="M342.683,188.045
			c2.928-0.732,5.223,2.23,5.223,2.23l18.626-30.934"/>
		
			<line style="fill:none;stroke:#282833;stroke-width:0.5;stroke-miterlimit:10;" x1="423.034" y1="182.915" x2="422.047" y2="156.403"/>
		
			<line style="fill:none;stroke:#282833;stroke-width:0.5;stroke-miterlimit:10;" x1="409.986" y1="135.337" x2="401.243" y2="133.673"/>
		
			<line style="fill:none;stroke:#282833;stroke-width:0.5;stroke-miterlimit:10;" x1="384.902" y1="133.673" x2="375.706" y2="135.337"/>
		<path style="fill:#282833;" d="M378.561,111.449c-2.829-5.564-2.517-13.801-2.893-19.879c-0.561-9.073,0.037-10.518,5.931-11.451
			c0.42-0.066,0.85-0.065,1.275-0.116c0.858-0.103,1.721-0.251,2.588-0.427c4.86-0.983,9.829-2.8,14.675-1.93
			c4.969,0.893,9.147,4.713,12.764,8.153c0.369,0.351,0.706,1.675,0.708,2.073c0.021,5.248-2.639,16.354-4.715,22.159
			c0,0,0.042-9.55-2.928-12.391c-2.971-2.841-0.512-5.683-2.451-6.716c-1.94-1.033-2.4,0.172-8.785,0.302
			c-6.385,0.129-8.836-1.44-10.297-0.665c-1.461,0.775,0.567,3.506-2.23,5.788C380.646,97.618,377.984,107.753,378.561,111.449z"/>
	</g>
	<g>
		<polygon style="fill:#FFB5B3;" points="691.808,424.946 672.357,424.946 670.909,410.432 690.359,410.432 		"/>
		<path style="fill:#FF9184;" d="M638.458,240.064l30.19,175.688h25.185l-17.158-177.161
			C676.144,225.414,640.054,222.057,638.458,240.064z"/>
		
			<line style="fill:none;stroke:#FFFFFF;stroke-width:0.5;stroke-miterlimit:10;" x1="654.848" y1="244.692" x2="677.266" y2="244.692"/>
		<g>
			<rect x="663.898" y="435.647" style="fill:#FFFFFF;" width="29.525" height="3.855"/>
			<path style="fill:#282833;" d="M693.174,435.897v3.355h-29.025v-3.355H693.174 M693.674,435.397h-30.025v4.355h30.025V435.397
				L693.674,435.397z"/>
		</g>
		<path style="fill:#282833;" d="M693.674,435.397c0,0,0.618-3.817-0.593-12.192h-22.012c0,0-7.421,4.354-7.421,12.192"/>
		<rect x="612.075" y="410.432" style="fill:#FFB5B3;" width="19.451" height="14.515"/>
		<path style="fill:#FF9184;" d="M611.835,239.626l-10.65,88.531l8.52,87.596h22.896l2.663-85.399l19.7-79.309
			C665.081,231.691,618.757,217.665,611.835,239.626z"/>
		<g>
			<rect x="593.469" y="435.647" style="fill:#FFFFFF;" width="41.63" height="3.855"/>
			<path style="fill:#282833;" d="M634.849,435.897v3.355h-41.13v-3.355H634.849 M635.349,435.397h-42.13v4.355h42.13V435.397
				L635.349,435.397z"/>
		</g>
		<path style="fill:#282833;" d="M635.349,435.397c0,0-0.11-8.129-2.723-12.192h-23.261l-5.951,6.096c0,0-10.195-1.741-10.195,6.097
			"/>
		
			<line style="fill:none;stroke:#FFFFFF;stroke-width:0.5;stroke-linecap:round;stroke-linejoin:round;stroke-miterlimit:10;" x1="607.667" y1="424.946" x2="617.221" y2="424.946"/>
		
			<line style="fill:none;stroke:#FFFFFF;stroke-width:0.5;stroke-linecap:round;stroke-linejoin:round;stroke-miterlimit:10;" x1="606.334" y1="426.278" x2="615.889" y2="426.278"/>
		
			<line style="fill:none;stroke:#FFFFFF;stroke-width:0.5;stroke-linecap:round;stroke-linejoin:round;stroke-miterlimit:10;" x1="605.003" y1="427.609" x2="614.557" y2="427.609"/>
		
			<line style="fill:none;stroke:#FFFFFF;stroke-width:0.5;stroke-linecap:round;stroke-linejoin:round;stroke-miterlimit:10;" x1="680.634" y1="425.365" x2="670.655" y2="425.365"/>
		
			<line style="fill:none;stroke:#FFFFFF;stroke-width:0.5;stroke-linecap:round;stroke-linejoin:round;stroke-miterlimit:10;" x1="679.407" y1="426.487" x2="669.427" y2="426.487"/>
		
			<line style="fill:none;stroke:#FFFFFF;stroke-width:0.5;stroke-linecap:round;stroke-linejoin:round;stroke-miterlimit:10;" x1="678.178" y1="427.609" x2="668.199" y2="427.609"/>
		<path style="fill:#5265FF;" d="M607.092,143.717l-5.494,48.31c0,0-34.993-2.542-45.686-4.313l-1.231,14.452
			c0,0,35.496,4.926,48.877,6.008c13.381,1.083,18.685-5.393,17.674-18.955c-1.011-13.561,6.497-50.153,6.497-50.153
			C626.977,126.769,607.724,127.375,607.092,143.717z"/>
		
			<line style="fill:none;stroke:#282833;stroke-width:2;stroke-linecap:round;stroke-linejoin:round;stroke-miterlimit:10;" x1="576.442" y1="189.601" x2="560.142" y2="187.847"/>
		<g>
			<path style="fill:#FFFFFF;" d="M509.099,155.404c-0.425-1.014,0.122-1.749,1.216-1.633l39.394,4.175
				c1.094,0.116,2.287,1.06,2.65,2.098l9.168,26.158c0.363,1.038-0.232,1.782-1.325,1.653l-37.459-4.422
				c-1.093-0.129-2.335-1.064-2.76-2.079L509.099,155.404z"/>
			<path style="fill:none;stroke:#282833;stroke-linecap:round;stroke-linejoin:round;stroke-miterlimit:10;" d="M509.099,155.404
				c-0.425-1.014,0.122-1.749,1.216-1.633l39.394,4.175c1.094,0.116,2.287,1.06,2.65,2.098l9.168,26.158
				c0.363,1.038-0.232,1.782-1.325,1.653l-37.459-4.422c-1.093-0.129-2.335-1.064-2.76-2.079L509.099,155.404z"/>
		</g>
		<path style="fill:#FFB5B3;" d="M555.516,193.384l-6.499-0.867c0,0-6.692-0.405-10.319-2.919
			c-3.496-2.423-7.249-9.459-6.367-11.548c0.816-1.929,11.374,1.223,12.792,4.072c1.386,2.787,2.253,4.585,4.916,4.9
			c2.665,0.313,5.874,0.692,5.874,0.692L555.516,193.384z"/>
		
			<path style="fill:#FFFFFF;stroke:#282833;stroke-width:0.5;stroke-linecap:round;stroke-linejoin:round;stroke-miterlimit:10;" d="
			M530.947,172.28c0.863,2.061,2.851,3.401,4.44,2.996c1.59-0.407,2.181-2.407,1.317-4.468c-0.863-2.061-2.85-3.402-4.442-2.995
			C530.676,168.219,530.086,170.219,530.947,172.28z"/>
		<path style="fill:#5265FF;" d="M611.835,239.626l1.694-39.505l4.683-69.544c0,0,34.066-0.455,47.018-0.349
			c12.951,0.106,13.296,11.105,13.957,21.605c0.661,10.501-7.005,53-7.005,53l4.493,33.758L611.835,239.626z"/>
		<path style="fill:#5265FF;" d="M676.771,137.037c0,0,14.535,35.97,19.627,44.915c5.012,8.806,5.533,15.46,0.283,23.554
			c-5.729,8.833-23.723,43.434-23.723,43.434l-12.11-8.19l20.413-45.821l-23.276-43.809l15.123-17.979"/>
		<path style="fill:none;stroke:#FFFFFF;stroke-width:0.5;stroke-miterlimit:10;" d="M687.849,415.753l-15.335-156.086
			c-14.834-1.167-17.666-14.975-17.666-14.975h-37.499c0,0-0.035,12.028-7.767,13.668"/>
		<path style="fill:#FFB5B3;" d="M662.417,241.811c0,0-3.63,5.366-6.35,6.361c-2.72,0.995-6.175,3.496-6.53,4.329
			c-0.356,0.833,1.984,2.225,4.565,0.612c2.58-1.612,3.884-1.564,3.884-1.564s4.813,6.225,10.403,6.813c0,0,0.96-3.528,0.293-6.027
			c-0.667-2.499,1.854-5.031,1.854-5.031L662.417,241.811z"/>
		<polyline style="fill:none;stroke:#FFFFFF;stroke-width:0.5;stroke-miterlimit:10;" points="635.349,244.692 638.458,278.75 
			646.323,285.832 667.472,408.082 693.09,408.082 		"/>
		<polyline style="fill:none;stroke:#FFFFFF;stroke-width:0.5;stroke-miterlimit:10;" points="638.458,278.75 627.099,328.25 
			628.794,415.753 		"/>
		
			<line style="fill:none;stroke:#FFFFFF;stroke-width:0.5;stroke-miterlimit:10;" x1="632.84" y1="408.082" x2="608.959" y2="408.082"/>
		
			<line style="fill:none;stroke:#FFFFFF;stroke-width:0.5;stroke-miterlimit:10;" x1="617.349" y1="244.692" x2="611.226" y2="244.692"/>
		<path style="fill:none;stroke:#282833;stroke-width:0.5;stroke-linecap:round;stroke-linejoin:round;stroke-miterlimit:10;" d="
			M660.019,154.948l21.243,39.981c0,0,7.254-0.608,9.587,2.065"/>
		<path style="fill:none;stroke:#282833;stroke-width:0.5;stroke-linecap:round;stroke-linejoin:round;stroke-miterlimit:10;" d="
			M689.015,192.5c0,0-5.339-0.142-7.753,2.429l-20.413,45.821"/>
		
			<polyline style="fill:none;stroke:#282833;stroke-width:0.5;stroke-linecap:round;stroke-linejoin:round;stroke-miterlimit:10;" points="
			611.835,239.626 614.287,194.929 613.062,152 		"/>
		<path style="fill:#FFB5B3;" d="M650.369,103.381c0.135-1.029,1.799-3.861,4.695-3.063c2.514,0.696,2.526,4.219,1.208,6.551
			c-0.673,1.191-3.263,3.22-5.644,1.647"/>
		<path style="fill:#FFB5B3;" d="M650.701,103.331c0.727-6.31-1.463-15.109-5.99-18.572c-5.81-4.442-15.805-3.958-20.984,1.175
			c-5.72,5.668-4.908,15.646-2.352,23.284c1.394,9.146,7.627,15.782,17.247,14.314C648.242,122.065,652.096,112.476,650.701,103.331
			"/>
		<path style="fill:#FFB5B3;" d="M646.56,112.845c0.078,1.56,1.926,15.557,4.705,17.364c0,0-5.355,9.846-12.053,9.846
			c-6.697,0-9.133-9.846-9.133-9.846s4.351-8.852,0.996-16.113"/>
		<g>
			<path style="fill:#282833;" d="M632.248,98.91c0,0,0.394-0.158,0.978-0.249c0.584-0.1,1.357-0.135,2.127-0.079
				c0.77,0.042,1.533,0.183,2.104,0.334c0.57,0.147,0.947,0.326,0.947,0.325c0.27,0.128,0.384,0.451,0.256,0.72
				c-0.065,0.135-0.179,0.232-0.311,0.279c0-0.001-0.393,0.137-0.977,0.222c-0.583,0.089-1.358,0.147-2.128,0.106
				c-0.77-0.027-1.535-0.145-2.106-0.307c-0.57-0.153-0.946-0.352-0.946-0.352c-0.269-0.143-0.37-0.477-0.228-0.746
				C632.029,99.044,632.131,98.956,632.248,98.91z"/>
		</g>
		<path style="fill:#282833;" d="M635.631,104.524c0.107,0.707-0.129,1.33-0.533,1.391c-0.401,0.061-0.815-0.463-0.923-1.169
			c-0.108-0.705,0.132-1.328,0.532-1.389C635.111,103.295,635.523,103.819,635.631,104.524z"/>
		<path style="fill:#282833;" d="M625.195,106.389c0.107,0.705-0.13,1.329-0.532,1.39c-0.403,0.062-0.815-0.462-0.924-1.168
			c-0.108-0.706,0.131-1.329,0.534-1.39C624.676,105.159,625.088,105.683,625.195,106.389z"/>
		<g>
			<path style="fill:#282833;" d="M621.543,101.924c0,0,0.11-0.235,0.332-0.5c0.222-0.266,0.563-0.545,0.946-0.762
				c0.376-0.226,0.784-0.403,1.113-0.499c0.331-0.091,0.573-0.12,0.573-0.121c0.304-0.036,0.579,0.18,0.616,0.484
				c0.016,0.131-0.016,0.257-0.081,0.361c0-0.001-0.129,0.206-0.354,0.467c-0.227,0.257-0.56,0.551-0.925,0.795
				c-0.358,0.254-0.758,0.444-1.092,0.532c-0.334,0.088-0.595,0.087-0.595,0.087c-0.327-0.001-0.592-0.267-0.592-0.595
				C621.487,102.085,621.508,101.999,621.543,101.924z"/>
		</g>
		<path style="fill:none;stroke:#282833;stroke-width:0.5;stroke-linecap:round;stroke-miterlimit:10;" d="M628.058,101.329
			c0,0-0.314,8.89,0.317,10.142c0.457,0.909,2.654-1.597,3.806-1.044"/>
		<path style="fill:none;stroke:#282833;stroke-width:0.5;stroke-linecap:round;stroke-linejoin:round;stroke-miterlimit:10;" d="
			M650.324,104.077c0.492-1.152,2.574-2.534,4.014-1.762"/>
		<path style="fill:none;stroke:#282833;stroke-width:0.5;stroke-linecap:round;stroke-linejoin:round;stroke-miterlimit:10;" d="
			M651.031,103.137c0,0,2.91,0.136,1.402,3.982"/>
		<path style="fill:none;stroke:#282833;stroke-width:0.5;stroke-linecap:round;stroke-linejoin:round;stroke-miterlimit:10;" d="
			M633.146,123.458c1.963,0.438,10.512,0.45,14.326-5.168"/>
		<path style="fill:#FFFFFF;" d="M636.093,113.697c-1.096-0.488-7.424,1.375-7.507,2.042c-0.083,0.666,2.833,3.458,3.75,3.208
			C633.253,118.697,637.308,114.239,636.093,113.697z"/>
		<path style="fill:#282833;" d="M636.315,88.713c-4.146,3.489-11.126,4.227-15.797,2.933c0,0-3.839-1.75-1.784-7.375
			c2.563-7.012,24.033-13.35,29.197-3.543c0,0,6.59,2.488,5.824,19.45c-1.425,0.287-1.807,0.759-2.963,2.11l-3.324,3.631
			c0,0,0.326-4.899,0.125-8.399c-0.2-3.5-4.354-1.411-7.287-2.75C635.652,92.646,636.315,88.713,636.315,88.713z"/>
		<path style="fill:#282833;" d="M621.394,91.209c0,0-2.385,2.707-1.776,10.197c0,0-2.063-10.332,0.19-13.462
			C622.06,84.813,621.394,91.209,621.394,91.209z"/>
		<path style="fill:none;stroke:#282833;stroke-width:0.5;stroke-linecap:round;stroke-linejoin:round;stroke-miterlimit:10;" d="
			M614.287,194.929c0,0,2.061,12.571,23.061,18.821"/>
	</g>
	<g>
		<polygon style="fill:#F2A61C;" points="55.497,248.929 58.957,346.875 136.54,346.875 136.54,351.677 52.957,351.677 
			50.418,249.177 		"/>
		<rect x="50.418" y="249.177" style="fill:#F2A61C;" width="23.121" height="7.157"/>
		<rect x="152.583" y="350.344" style="fill:#F2A61C;" width="7.078" height="88.682"/>
		<polygon style="fill:#F2A61C;" points="78.618,248.929 82.078,346.875 159.661,346.875 159.661,351.677 76.078,351.677 
			73.539,249.177 		"/>
		<rect x="129.462" y="350.344" style="fill:#F2A61C;" width="7.078" height="88.682"/>
		<polygon style="fill:#FFB5B3;" points="182.124,430.511 202.763,426.936 198.646,406.302 178.385,410.177 		"/>
		<polygon style="fill:#FFB5B3;" points="134.394,398.302 153.153,404.896 158.768,384.617 138.931,378.955 		"/>
		<polygon style="fill:#282833;" points="178.079,321.189 163.407,393.474 138.213,380.277 152.329,316.742 		"/>
		<path style="fill:#FF9184;" d="M113.159,247.122c0,0,4.297,1.875,5.027,7.132c0.731,5.257,7.188,40.173,7.188,40.173
			l43.494,15.415l-2.185,7.667l-28.585-4.206l-33.504-0.091c0,0,4.155-53.035,3.822-54.035
			C108.083,258.177,113.159,247.122,113.159,247.122z"/>
		<path style="fill:#FFB5B3;" d="M140.491,303.289c4.836-2.181,11.537,6.572,16.5,7.791c2.043,0.502,5.241,0.547,6.973,1.765
			c0.761,0.535,3.455,4.598,1.814,3.793c-3.826-1.875-9.071-3.433-15.571-3.808c-1.717-0.099-3.125-0.625-8.548-5.874"/>
		<path style="fill:#282833;" d="M94.749,311.288c0,0,38.708,1.223,64.541,4.056c16.77,1.839,23.293,5.397,25.293,17.942
			c2,12.545,18.666,82.523,18.666,82.523l-27.945,6.966l-17.555-69.599c0,0-35.985-6.269-68.181-6.269
			c-17.615,0-29.302,2.265-29.531-14.578C59.852,318.71,79.164,313.889,94.749,311.288z"/>
		<polygon style="fill:#FF9184;" points="60.036,330.123 67.749,304.427 67.241,249.342 79.505,238.591 113.159,247.122 
			113.159,309.131 		"/>
		<polyline style="fill:#FFFFFF;stroke:#282833;stroke-linecap:round;stroke-linejoin:round;stroke-miterlimit:10;" points="
			138.099,313.303 188.065,320.509 203.249,269.66 181.434,265.759 166.684,317.509 		"/>
		<path style="fill:#FF9184;" d="M67.509,251.931c0,0,8.074,46.325,9.741,53.971s7.732,8.123,15.513,6.641
			c8.166-1.556,52.756-1.092,52.756-1.092v-11.995l-49.269-3.402c0,0-6.456-36.966-7.982-49.304
			C86.597,233.251,64.583,237.477,67.509,251.931z"/>
		<path style="fill:none;stroke:#282833;stroke-width:0.5;stroke-linecap:round;stroke-linejoin:round;stroke-miterlimit:10;" d="
			M67.509,251.931c0,0,8.074,46.325,9.741,53.971s7.732,8.123,15.513,6.641c8.166-1.556,52.756-1.092,52.756-1.092v-11.995
			l-49.269-3.402c0,0-3.405-19.498-5.854-34.899"/>
		
			<line style="fill:none;stroke:#282833;stroke-width:0.5;stroke-linecap:round;stroke-linejoin:round;stroke-miterlimit:10;" x1="113.159" y1="261.677" x2="113.159" y2="297.221"/>
		<path style="fill:none;stroke:#FFFFFF;stroke-width:0.5;stroke-linecap:round;stroke-linejoin:round;stroke-miterlimit:10;" d="
			M166.957,316.177c-13.003-2.984-14.345,4.667-16.839,14.667"/>
		<path style="fill:none;stroke:#FFFFFF;stroke-width:0.5;stroke-linecap:round;stroke-linejoin:round;stroke-miterlimit:10;" d="
			M166.957,316.177c13.003,2.984,9.342,13.945,9.342,13.945l-12.892,63.352l-25.194-13.196c0,0,9.411-39.434,11.905-49.434"/>
		<g>
			
				<rect x="140.347" y="395.444" transform="matrix(0.454 -0.891 0.891 0.454 -286.8674 350.8604)" style="fill:#FFFFFF;" width="5.021" height="28.123"/>
			<path style="fill:#282833;" d="M131.578,401.221l24.612,12.542l-2.053,4.027l-24.612-12.541L131.578,401.221 M131.36,400.548
				l-2.508,4.92l25.504,12.995l2.506-4.919L131.36,400.548L131.36,400.548z"/>
		</g>
		<path style="fill:#5265FF;" d="M133.386,394.8c-2.686,2.359-4.294,4.846-6.096,7.928c-0.842,1.438-0.528,2.293,0.785,2.983
			c1.313,0.691,0,0,18.26,9.607c10.642,5.424,13.648,7.057,14.844,4.712c3.773-7.404-0.088-13.008-0.089-13.009
			c-2.106-3.423-1.506-5.098-1.783-8.397c-0.017-0.207-0.299-1.176-0.657-1.555c-1.469-1.555-5.427-4.035-9.152-3.45
			c-3.238,0.509-4.557,8.144-10.598,5.452c-3.627-1.615-4.01-4.352-3.387-5.54C135.655,393.262,134.318,393.978,133.386,394.8z"/>
		<g>
			<g>
				<path style="fill:#FFFFFF;" d="M159.483,420.821c-1.806,0-5.217-1.739-12.014-5.205l-1.021-0.521l-18.256-9.605
					c-0.622-0.327-0.965-0.664-1.078-1.06c-0.117-0.41,0.011-0.927,0.391-1.577c0.223-0.382,0.518-0.865,0.834-1.37
					c1.436,0.78,9.986,5.421,14.896,7.926l0.105,0.054l0.107-0.047c0.049-0.02,4.93-2.084,9.926-2.084
					c3.75,0,6.589,1.138,8.438,3.383c1.981,2.403,1.187,5.193-0.856,9.202C160.633,420.551,160.192,420.821,159.483,420.821z"/>
				<path style="fill:#282833;" d="M128.427,401.815c1.912,1.038,9.979,5.411,14.695,7.816l0.209,0.107l0.215-0.092
					c0.049-0.022,4.879-2.065,9.828-2.065c3.672,0,6.445,1.108,8.246,3.292c1.894,2.297,1.109,5.014-0.887,8.929
					c-0.282,0.554-0.633,0.77-1.25,0.77c-1.746,0-5.352-1.84-11.899-5.179l-1.017-0.518l-15.484-8.148l-2.775-1.46
					c-0.549-0.289-0.861-0.585-0.953-0.906c-0.098-0.342,0.023-0.794,0.367-1.384C127.913,402.649,128.159,402.244,128.427,401.815
					 M128.251,401.151c-0.361,0.578-0.71,1.143-0.961,1.576c-0.842,1.438-0.528,2.293,0.785,2.983c1.313,0.691,0,0,18.26,9.607
					c7.484,3.814,11.191,5.754,13.148,5.754c0.826,0,1.341-0.346,1.695-1.042c2.086-4.093,2.898-6.962,0.826-9.475
					c-2.188-2.655-5.447-3.474-8.631-3.474c-5.108,0-10.024,2.104-10.024,2.104C137.944,406.43,128.251,401.151,128.251,401.151
					L128.251,401.151z"/>
			</g>
		</g>
		<path style="fill:none;stroke:#FFFFFF;stroke-width:0.5;stroke-linecap:round;stroke-linejoin:round;stroke-miterlimit:10;" d="
			M162.175,408.731c0,0-4.507-5.179-12.592-4.826"/>
		<path style="fill:none;stroke:#FFFFFF;stroke-width:0.5;stroke-linecap:round;stroke-linejoin:round;stroke-miterlimit:10;" d="
			M160.349,405.008c0,0-5.566-4.439-10.249-3.695"/>
		<path style="fill:none;stroke:#FFFFFF;stroke-width:0.5;stroke-linecap:round;stroke-linejoin:round;stroke-miterlimit:10;" d="
			M159.669,402.353c0,0-3.559-3.743-8.041-3.392"/>
		<path style="fill:#5265FF;" d="M179.56,427.542l-0.316,4.449c0,0-0.337,3.155-0.424,4.68c-0.088,1.524,0.523,2.091,1.882,2.108
			c1.358,0.019,0,0,18.894,0.246c10.941,0,21.599,0.083,21.599-2.328c0-7.61-10.713-11.205-10.714-11.206
			c-3.069-1.464-4.14-2.832-6.042-5.705c-0.551-0.829-2.772-2.301-6.248,0.219c-2.431,1.761-5.369,8.54-11.417,8.855
			c-3.653,0.191-4.974-0.854-5.651-2.242C180.858,426.077,179.56,427.542,179.56,427.542z"/>
		<g>
			<g>
				<path style="fill:#FFFFFF;" d="M199.596,438.775l-18.892-0.246c-0.628-0.008-1.055-0.143-1.304-0.41
					c-0.263-0.281-0.371-0.751-0.331-1.434c0.021-0.399,0.063-0.911,0.109-1.448c2.5,0.028,24.344,0.274,29.548,0.275h0.194
					l0.048-0.188c0.016-0.061,1.602-6.056,5.989-7.363c2.754,1.735,5.986,4.644,5.986,8.735c0,2.078-10.668,2.078-19.24,2.078
					H199.596z"/>
				<path style="fill:#282833;" d="M214.921,428.234c2.68,1.708,5.773,4.532,5.773,8.463c0,0.248-0.395,1.089-5.475,1.512
					c-3.514,0.293-8.2,0.316-13.515,0.316h-1.051h-1.051l-16.023-0.208l-2.871-0.038c-0.557-0.007-0.925-0.115-1.125-0.33
					c-0.213-0.229-0.3-0.638-0.265-1.251c0.019-0.339,0.052-0.76,0.089-1.209c3.387,0.039,24.248,0.272,29.319,0.273h0.388
					l0.097-0.376C209.226,435.328,210.755,429.566,214.921,428.234 M214.995,427.69c-4.662,1.297-6.268,7.572-6.268,7.572
					c-5.557-0.001-29.776-0.278-29.776-0.278c-0.057,0.623-0.105,1.228-0.131,1.686c-0.088,1.524,0.523,2.091,1.882,2.108
					c1.358,0.019,0,0,18.894,0.246c0.704,0,1.409,0,2.108,0c10.162,0,19.49-0.072,19.49-2.328
					C221.194,432.491,217.923,429.514,214.995,427.69L214.995,427.69z"/>
			</g>
		</g>
		<path style="fill:none;stroke:#FFFFFF;stroke-width:0.5;stroke-linecap:round;stroke-linejoin:round;stroke-miterlimit:10;" d="
			M212.978,426.328c0,0-3.401-0.238-5.73,3.274"/>
		<path style="fill:none;stroke:#FFFFFF;stroke-width:0.5;stroke-linecap:round;stroke-linejoin:round;stroke-miterlimit:10;" d="
			M210.693,425.348c0,0-3.294-0.237-5.623,3.274"/>
		<path style="fill:none;stroke:#FFFFFF;stroke-width:0.5;stroke-linecap:round;stroke-linejoin:round;stroke-miterlimit:10;" d="
			M208.913,424.262c0,0-3.445-0.084-5.775,3.429"/>
		<rect x="52.957" y="350.344" style="fill:#F2A61C;" width="7.079" height="88.682"/>
		<rect x="76.078" y="350.344" style="fill:#F2A61C;" width="7.079" height="88.682"/>
		<path style="fill:#5265FF;" d="M117.634,202.107c2.622,5.988,2.703,12.887,1.635,19.218c-0.712,4.21-1.21,8.532-1.463,12.776
			c-0.055,0.918,0.032,2.316-0.685,2.997c-2.081,1.971-10.518-1.274-11.666-3.524"/>
		<path style="fill:#5265FF;" d="M116.831,200.708c-3.404-5.896-11.105-10.184-17.616-7.779c-5.416-2.897-12.419,0.583-15.829,4.79
			c-4.198,5.181-4.909,11.864-7.804,17.654c-1.459,2.919-3.122,5.359-5.129,7.604c-0.893,0.999-0.42,2.871,0.816,3.169
			c7.372,1.777,14.67,9.94,22.12,5.152c3.386-2.176,4.874-7.079,6.436-10.637c2.067-4.708,5.724-16.42,12.465-15.788"/>
		<path style="fill:#FFB5B3;" d="M90.943,231.071c0,0,0.432,4.268-2.796,9.785c0,0,3.619,16.813,11.944,17.567
			c8.325,0.754,5.674-13.472,5.674-13.472s0.134-7.217,1.731-10.627"/>
		<path style="fill:#FFB5B3;" d="M87.136,217.6c-1.746,10.723,6.66,19.977,12.2,20.879c5.54,0.902,16.339-5.146,17.867-14.527
			l1.681-10.32l-8.342-7.195l-9.571-7.892c0,0-5.086,2.429-6.12,3.165c-1.029,0.736-5.693,7.939-5.693,7.939L87.136,217.6z"/>
		<path style="fill:#FFB5B3;" d="M87.136,217.6c-0.053-1.045-1.204-3.889-3.49-2.982c-1.984,0.787-2.165,4.387-1.258,6.726
			c0.466,1.196,2.359,3.286,4.647,1.337"/>
		<path style="fill:none;stroke:#282833;stroke-width:0.5;stroke-linecap:round;stroke-linejoin:round;stroke-miterlimit:10;" d="
			M83.869,216.216c2.36-0.646,3.144,2.273,3.034,4.21"/>
		<path style="fill:none;stroke:#282833;stroke-width:0.5;stroke-linecap:round;stroke-linejoin:round;stroke-miterlimit:10;" d="
			M84.94,221.113c-0.413-1.421,0.661-3.885,1.562-3.354"/>
		<path style="fill:#5265FF;" d="M99.887,200.168c-1.328,7.605,10.344,9.055,14.528,13.197c3.08,3.053,3.301,7.257,2.621,11.439
			l0.166-0.854l0,0c3.076-5.85,3.849-14.846,0.432-21.844c-3.439-7.039-13.075-10.025-20.225-6.4
			c-9.291,4.712-10.527,13.432-10.173,23.031c0,0,2.048-6.596,7.925-9.719C98.415,207.292,99.317,203.672,99.887,200.168"/>
		<g>
			<path style="fill:#282833;" d="M103.016,216.612c0-0.001-0.456,0.217-1.15,0.396c-0.694,0.188-1.627,0.342-2.568,0.404
				c-0.939,0.076-1.887,0.055-2.602-0.008c-0.714-0.059-1.197-0.178-1.197-0.178c-0.283-0.069-0.455-0.355-0.386-0.639
				c0.04-0.165,0.159-0.295,0.304-0.357c0,0,0.457-0.196,1.152-0.369c0.695-0.179,1.627-0.355,2.567-0.433
				c0.938-0.091,1.884-0.092,2.6-0.019c0.715,0.064,1.199,0.204,1.199,0.204c0.284,0.081,0.448,0.378,0.366,0.662
				C103.256,216.429,103.148,216.548,103.016,216.612z"/>
		</g>
		<path style="fill:#282833;" d="M99.325,221.467c-0.12,0.741,0.123,1.4,0.546,1.469c0.425,0.069,0.866-0.478,0.986-1.219
			c0.121-0.744-0.124-1.403-0.547-1.472C99.887,220.176,99.446,220.723,99.325,221.467z"/>
		<path style="fill:#282833;" d="M111.067,223.667c-0.12,0.743,0.124,1.4,0.549,1.47c0.424,0.068,0.863-0.478,0.984-1.221
			c0.121-0.742-0.123-1.401-0.546-1.471C111.63,222.377,111.189,222.924,111.067,223.667z"/>
		<g>
			<path style="fill:#282833;" d="M114.324,220.809c0,0-0.327-0.086-0.753-0.297c-0.426-0.21-0.938-0.56-1.402-0.966
				c-0.473-0.397-0.908-0.841-1.207-1.207c-0.295-0.37-0.469-0.646-0.469-0.646c-0.155-0.246-0.081-0.572,0.166-0.729
				c0.144-0.09,0.316-0.102,0.464-0.047c0,0,0.306,0.113,0.728,0.328c0.42,0.217,0.941,0.553,1.428,0.935
				c0.492,0.372,0.938,0.803,1.23,1.177c0.293,0.373,0.444,0.677,0.444,0.677c0.136,0.27,0.024,0.601-0.247,0.735
				C114.585,220.831,114.448,220.841,114.324,220.809z"/>
		</g>
		<path style="fill:none;stroke:#282833;stroke-width:0.5;stroke-linecap:round;stroke-miterlimit:10;" d="M107.657,218.716
			c0,0,0.235,9.371-0.442,10.685c-0.491,0.953-2.782-1.711-4.001-1.14"/>
		<path style="fill:none;stroke:#282833;stroke-width:0.5;stroke-linecap:round;stroke-miterlimit:10;" d="M106.603,231.538
			c0,0-5.365,2.505-7.394-2.773"/>
		<path style="fill:none;stroke:#282833;stroke-width:0.5;stroke-linecap:round;stroke-miterlimit:10;" d="M106.666,236.917
			c-5.343,2.796-10.63,1.907-15.563-4.387"/>
	</g>
	<line style="fill:none;stroke:#282833;stroke-width:2;stroke-miterlimit:10;" x1="30.627" y1="440" x2="717.628" y2="440"/>
</g>
</svg>
